<svg width="7607" height="2672" viewBox="0 0 7607 2672" fill="none" xmlns="http://www.w3.org/2000/svg">
<path d="M54.127 851.726C551.161 810.136 901.946 677.852 1131.83 563.326C1364.3 447.511 1531.72 320.463 1837.65 252.158C2175.08 176.263 2395.55 210.264 2482.76 229.389C2603.66 255.953 2596.14 274.015 2793.93 335.642C3173.85 454.038 3246.03 401.367 3416.26 479.842C3698.51 609.926 3614.35 807.328 3909.58 1026.28C4123.37 1184.9 4477.35 1311.12 4797.54 1223.61C5099.07 1141.19 5133 934.224 5450.24 904.853C5580.55 892.785 5688.93 919.576 5905.61 973.158C6183.31 1041.46 6369.78 1125.71 6444.46 1155.31C6665.69 1243.12 7022.78 1298.37 7605.65 1124.95" stroke="white" stroke-width="5" stroke-miterlimit="10"/>
<path d="M50.7871 918.667C531.58 882.769 891.017 763.007 1141.77 644.307C1345.47 546.555 1500.83 439.392 1714.93 362.814C1761.76 346.117 1811.09 329.951 1864.21 315.987C2198.99 228.101 2418.63 242.596 2510.31 251.476C2633.26 263.316 2633.26 276.825 2827.09 336.706C2963.7 378.828 3061 402.886 3136.36 418.672C3264.47 445.463 3328.6 447.285 3429.69 498.817C3467.41 517.887 3502.81 541.24 3535.19 568.413C3684.93 694.018 3678.55 853.246 3926.96 1022.04C4143.18 1168.97 4494.8 1280.08 4809.54 1193.18C4834.47 1186.28 4859.04 1178.12 4883.15 1168.74C5126.47 1073.95 5181.12 907.207 5459.95 881.023C5489.34 878.222 5518.88 877.385 5548.37 878.519C5647.49 882.01 5749.95 906.752 5912.21 946.824C6181.03 1013.61 6364.62 1096.26 6446.96 1128.97C6507.28 1152.71 6569.48 1171.34 6632.91 1184.68C6852.39 1231.43 7162.65 1236.29 7599.12 1116.98" stroke="white" stroke-width="5" stroke-miterlimit="10"/>
<path d="M47.4473 991.525C511.923 961.167 880.391 854.914 1151.71 730.599C1367.18 631.936 1529.75 519.232 1739.9 438.783C1787.86 420.341 1837.58 401.671 1890.93 385.657C2223.04 285.704 2441.54 273.636 2538.08 279.404C2662.47 286.994 2670.75 285.552 2860.33 343.611C2993.07 384.367 3089.99 411.917 3163.91 431.27C3288.45 463.677 3348.33 470.204 3442.9 523.71C3478.93 544.316 3512.8 568.496 3543.99 595.886C3688.65 720.657 3695.78 870.321 3944.49 1023.93C4163.14 1159.1 4512.41 1255.11 4821.68 1168.82C4847.86 1161.23 4872.07 1153.64 4894.76 1144.53C5145.75 1047.99 5201.3 888.991 5469.9 863.718C5499.05 860.847 5528.35 859.909 5557.63 860.91C5658.42 863.87 5760.72 887.929 5919.04 927.622C6179.05 992.587 6359.61 1073.87 6449.7 1108.93C6509.53 1132.46 6571.15 1151.13 6633.97 1164.79C6851.48 1212.61 7160.3 1222.7 7592.44 1115.23" stroke="white" stroke-width="5" stroke-miterlimit="10"/>
<path d="M44.1836 1069.32C492.342 1044.8 869.614 951.074 1161.73 822.204C1388.66 722.023 1558.66 604.159 1764.72 519.764C1813.9 499.576 1864.06 478.477 1917.49 460.338C2246.95 348.469 2463.93 325.018 2565.71 312.267C2691.62 296.557 2708.09 299.213 2893.5 355.451C3022.52 394.689 3119.06 425.806 3191.92 448.726C3312.82 486.673 3368.6 498.058 3456.64 553.461C3490.71 575.636 3522.85 600.644 3552.72 628.217C3692.29 752.077 3713.39 892.103 3961.79 1030.46C4183.18 1153.86 4529.79 1234.84 4833.59 1149.08C4859.55 1141.49 4883.61 1133.9 4906.15 1125.02C5164.65 1026.36 5221.34 875.406 5479.53 850.285C5508.48 847.345 5537.58 846.305 5566.66 847.174C5669.12 849.526 5771.58 873.054 5925.72 911.988C6176.78 975.056 6354.45 1054.9 6452.2 1092.92C6511.67 1116.09 6572.78 1134.78 6635.03 1148.86C6850.57 1197.73 7157.94 1213.14 7585.69 1117.43" stroke="white" stroke-width="5" stroke-miterlimit="10"/>
<path d="M40.8438 1147.26C472.76 1128.44 858.685 1047.38 1171.67 913.884C1410.14 812.109 1587.5 689.008 1789.61 600.818C1839.93 578.885 1890.47 555.281 1944.13 535.093C2270.93 411.537 2485.94 369.491 2593.41 345.357C2720.38 316.82 2745.2 313.101 2926.74 367.518C3052.34 405.465 3148.05 439.921 3219.69 466.181C3336.95 509.593 3388.56 525.986 3470.14 583.211C3502.19 606.903 3532.62 632.715 3561.22 660.471C3695.78 783.269 3730.84 913.732 3979.02 1037.29C4203.14 1148.85 4547.01 1214.88 4845.43 1129.73C4871.09 1122.14 4894.99 1114.55 4917.46 1105.82C5183.54 1005.11 5241.22 862.959 5489.1 837.534C5517.84 834.633 5546.73 833.492 5575.62 834.119C5679.59 835.94 5781.75 858.86 5932.32 897.035C6174.58 958.358 6349.29 1036.83 6454.7 1077.59C6513.75 1100.53 6574.33 1119.27 6636.02 1133.68C6849.66 1183.69 7155.59 1204.26 7579.01 1120.47" stroke="white" stroke-width="5" stroke-miterlimit="10"/>
<path d="M37.6562 1197.5C453.331 1184.37 847.984 1116.07 1181.77 977.94C1431.69 874.495 1616.49 745.929 1814.65 654.248C1866.04 630.493 1917.11 604.689 1970.92 582.224C2294.92 446.98 2508.18 386.719 2621.04 350.669C2749.15 309.838 2782.77 299.137 2959.91 351.808C3057.73 381 3153.75 415.921 3247.47 456.391C3361.31 505.191 3408.59 526.745 3483.5 585.412C3516.21 611.14 3542.17 638.538 3570.25 665.177C3699.8 786.609 3748.91 908.04 3996.63 1016.42C4223.7 1116.07 4564.7 1167.22 4857.65 1082.67C4883.08 1075.08 4906.83 1067.5 4929.14 1058.92C5202.9 956.385 5261.56 821.748 5499.11 797.082C5527.63 794.172 5556.29 792.955 5584.95 793.439C5690.6 794.881 5792.6 816.967 5939.08 854.155C6172.45 913.505 6344.28 990.766 6457.28 1034.25C6515.95 1056.95 6576.07 1075.71 6637.23 1090.42C6848.9 1141.57 7153.31 1167.45 7572.4 1095.42" stroke="white" stroke-width="5" stroke-miterlimit="10"/>
<path d="M34.166 1233.33C433.524 1225.74 836.904 1170.11 1191.56 1027.5C1452.94 922.385 1645.03 788.203 1839.4 693.563C1891.92 667.91 1943.37 639.829 1997.41 615.239C2318.98 468.535 2530.57 390.135 2648.74 342.018C2777.76 289.271 2820.11 271.208 2993.15 322.058C3090.11 350.554 3184.46 387.268 3275.17 431.802C3385.3 485.839 3428.56 512.705 3496.94 573.421C3527.29 600.212 3551.2 628.748 3579.05 655.691C3703.67 776.364 3766.89 887.322 4014.01 981.356C4244.2 1068.94 4582.23 1105.37 4869.72 1021.35C4894.84 1013.76 4918.37 1006.17 4940.68 997.749C5222.1 893.621 5281.98 766.725 5508.91 742.97C5537.21 739.983 5565.67 738.666 5594.13 739.024C5701.3 739.934 5803.3 761.337 5945.76 798.07C6170.25 855.674 6339.12 931.493 6459.87 977.864C6518.13 1000.27 6577.72 1019.05 6638.29 1034.1C6848.07 1086.39 7151.04 1117.59 7565.8 1057.25" stroke="white" stroke-width="5" stroke-miterlimit="10"/>
<path d="M30.9023 1269.68C413.943 1267.93 825.899 1224.67 1201.58 1077.59C1474.34 970.731 1673.64 830.781 1864.21 732.725C1917.87 705.023 1969.86 674.665 2024.05 648.102C2343.03 490.089 2553.11 393.854 2676.36 333.139C2807.13 268.78 2857.45 243.127 3026.31 292.155C3122.57 320.353 3215.36 359.252 3302.95 408.123C3409.2 467.245 3448.52 499.728 3510.45 561.961C3538.22 589.891 3560.23 619.338 3587.78 646.812C3707.54 766.194 3785.11 867.286 4031.46 946.824C4264.84 1022.19 4599.69 1043.97 4881.48 960.637C4906.38 953.047 4929.75 945.458 4951.91 937.109C5241 830.857 5301.56 711.929 5518.47 688.326C5546.55 685.338 5574.77 683.919 5603.01 684.076C5711.85 684.076 5813.7 705.175 5952.13 741.301C6167.82 796.932 6333.65 871.536 6462.14 920.564C6520 942.781 6579.09 961.634 6639.13 977.03C6846.93 1030.16 7148.46 1066.66 7558.82 1018.32" stroke="white" stroke-width="5" stroke-miterlimit="10"/>
<path d="M27.5625 1306.19C394.362 1310.13 814.97 1279.39 1211.52 1127.83C1495.75 1019.23 1702.25 873.434 1889.11 772.418C1943.75 742.895 1996.35 710.488 2050.61 681.344C2367.09 512.023 2575.8 397.953 2704.06 324.639C2836.42 248.744 2894.79 215.35 3059.56 262.557C3155.08 290.429 3246.32 331.288 3330.73 383.988C3433.72 448.271 3468.4 486.37 3523.88 550.122C3549.15 579.266 3569.42 609.472 3596.59 637.477C3711.49 755.645 3803.25 846.643 4048.84 911.913C4285.56 974.829 4617.14 982.267 4893.7 899.466C4918.37 891.876 4941.59 884.287 4963.6 876.166C5260.43 768.32 5321.82 656.982 5528.49 633.834C5556.37 630.838 5584.38 629.318 5612.42 629.28C5722.85 628.597 5824.93 649.241 5959.19 684.608C6165.92 738.417 6328.87 811.731 6465.03 863.492C6522.46 885.556 6581.03 904.531 6640.49 920.337C6846.4 974.829 7146.48 1016.34 7552.52 979.838" stroke="white" stroke-width="5" stroke-miterlimit="10"/>
<path d="M24.2246 1342.54C374.782 1351.95 804.194 1333.66 1221.62 1177.69C1517.6 1067.27 1730.87 915.554 1914.15 811.73C1969.86 780.157 2022.99 745.701 2077.4 714.433C2391.3 534.031 2598.72 402.202 2731.92 315.909C2866.18 228.858 2932.36 187.419 3092.95 232.804C3187.81 260.58 3277.52 303.592 3358.58 360.156C3458 429.372 3488.36 473.391 3537.39 538.584C3560.16 568.942 3578.45 599.832 3605.69 628.444C3715.89 745.322 3821.99 825.77 4066.68 877.227C4306.73 927.545 4634.98 920.79 4906.15 838.596C4930.51 831.007 4953.58 823.417 4975.52 815.828C5280.01 706.312 5342.32 602.564 5538.58 580.023C5566.3 576.869 5594.17 575.247 5622.06 575.166C5734.09 574.407 5835.78 593.912 5966.4 628.292C6164.26 680.28 6324.24 752.304 6468.14 806.797C6520.13 826.529 6577.73 846.034 6642.17 863.49C6846.09 919.045 7144.74 965.872 7546.37 941.13" stroke="white" stroke-width="5" stroke-miterlimit="10"/>
<path d="M20.8848 1377.83C354.821 1393.01 792.961 1387.24 1231.4 1226.95C1538.47 1114.7 1759.1 956.918 1938.9 850.361C1995.59 816.74 2049.32 780.311 2103.89 746.765C2415.51 555.283 2621.8 405.77 2759.39 306.575C2895.55 207.912 2969.47 158.884 3125.96 202.448C3220.27 230.153 3308.56 275.25 3386.28 335.415C3482.29 409.641 3507.71 459.655 3550.75 526.139C3571.01 557.711 3587.48 589.359 3614.12 618.503C3719.61 733.939 3839.98 804.293 4083.68 841.634C4327.38 878.974 4652.05 858.33 4917.76 776.743C4941.9 769.154 4964.82 761.565 4986.6 753.975C5298.83 642.789 5362.05 546.631 5548.22 524.621C5575.66 521.415 5603.25 519.718 5630.87 519.536C5744.71 518.094 5846.11 537.068 5972.39 570.993C6161.45 621.083 6318.4 691.893 6470.04 749.042C6521.8 768.623 6578.94 788.052 6642.62 805.887C6844.58 862.505 7141.78 914.568 7539.09 901.742" stroke="white" stroke-width="5" stroke-miterlimit="10"/>
<path d="M17.6211 1412.66C335.544 1433.69 781.956 1440.14 1241.42 1275.6C1560.18 1161.76 1787.41 997.52 1963.71 888.535C2021.47 852.789 2075.81 814.462 2130.68 778.639C2439.88 576 2645.1 409.032 2787.02 296.48C2925.37 187.04 3007.11 129.512 3158.9 171.33C3259.69 199.107 3351.22 256.559 3413.83 309.914C3506.5 388.996 3527.67 445.158 3564.03 512.932C3581.64 545.719 3596.36 578.126 3622.62 607.876C3723.48 721.718 3857.89 781.599 4100.76 805.203C4347.64 829.413 4669.21 795.109 4929.45 714.129C4953.28 706.539 4976.05 698.95 4997.75 691.361C5317.65 578.429 5381.71 489.86 5557.4 468.458C5584.63 465.204 5612.02 463.406 5639.44 463.069C5754.73 460.868 5856.12 479.387 5978.85 512.628C6159.02 560.897 6312.78 630.417 6472.16 690.298C6523.69 709.651 6580.39 729.156 6643.23 747.219C6843.29 804.975 7139.05 862.276 7531.95 861.061" stroke="white" stroke-width="5" stroke-miterlimit="10"/>
<path d="M14.2812 1447.05C315.963 1473.84 770.648 1491.67 1251.36 1323.72C1580.98 1207.14 1815.64 1037.59 1988.61 925.953C2047.27 888.006 2102.45 847.857 2157.17 809.758C2464.24 596.418 2668.47 411.386 2814.72 286.084C2955.35 165.563 3044.07 99.9903 3192.37 139.911C3289.59 166.322 3380.67 226.81 3441.84 284.111C3531.17 368.051 3547.25 430.284 3577.69 499.424C3592.87 533.425 3605.69 566.439 3631.65 596.797C3727.88 709.425 3876.56 758.301 4118.51 768.851C4368.97 779.704 4687.04 731.966 4941.82 651.517C4965.45 643.979 4988.04 636.389 5009.59 628.749C5337.31 514.3 5402.2 433.168 5567.57 412.373C5594.57 409.032 5621.73 407.132 5648.93 406.681C5765.81 403.873 5867.2 421.86 5985.98 454.343C6157.2 500.715 6308.15 569.324 6475.35 631.633C6526.65 650.91 6582.81 670.263 6644.97 688.63C6843.06 747.524 7137.38 810.062 7525.96 820.839" stroke="white" stroke-width="5" stroke-miterlimit="10"/>
<path d="M10.9414 1480.89C296.305 1513.3 759.718 1543.66 1261.31 1371.3C1602.38 1252.98 1843.95 1076.91 2013.5 963.064C2073.08 923.067 2128.86 880.946 2183.81 840.57C2488.68 616.377 2692.3 413.586 2842.34 275.078C2985.41 143.401 3081.41 69.4791 3225.23 107.654C3318.96 132.624 3409.66 196.223 3469.23 257.622C3555.37 346.419 3566.38 414.876 3590.67 485.306C3602.96 520.598 3614.42 554.295 3639.92 585.184C3732.13 696.294 3895 741.831 4135.97 731.585C4389.31 720.808 4704.57 667.909 4953.96 588.068C4977.34 580.529 4999.75 572.94 5021.21 565.299C5356.81 449.788 5422.38 375.563 5577.44 355.375C5604.23 352.007 5631.19 350.031 5658.19 349.455C5776.66 346.115 5878.28 363.419 5992.73 394.992C6154.77 439.921 6303.07 507.695 6477.93 572.282C6529 591.407 6584.71 610.761 6646.03 629.431C6842.22 689.463 7135.1 757.237 7519.28 779.854" stroke="white" stroke-width="5" stroke-miterlimit="10"/>
<path d="M7.29883 1514.36C276.421 1552.31 748.486 1595.34 1270.95 1418.51C1623.48 1298.44 1871.5 1115.92 2038.01 999.494C2098.73 957.297 2155.12 913.429 2210.07 870.473C2512.89 635.199 2715.37 415.104 2869.74 263.315C3015.54 120.633 3118.98 38.8181 3258.78 75.0958C3348.94 98.6232 3439.26 165.259 3497.32 230.756C3580.27 324.258 3585.96 398.939 3604.55 470.583C3614.12 507.165 3624.06 541.469 3649.18 573.041C3736.46 682.633 3912.84 709.652 4153.35 693.866C4410.02 677.245 4721.95 603.399 4965.88 524.165C4988.65 516.576 5011.41 508.986 5032.59 501.397C5375.86 384.139 5442.42 317.428 5587.15 297.923C5613.72 294.463 5640.44 292.386 5667.22 291.699C5787.29 287.753 5888.53 304.526 5999.34 335.491C6152.87 378.219 6297.91 444.324 6480.43 512.022C6531.36 530.996 6586.68 549.969 6647.4 569.323C6841.61 630.038 7133.13 703.429 7512.6 737.885" stroke="white" stroke-width="5" stroke-miterlimit="10"/>
<path d="M4.33984 1547.46C257.145 1591.25 737.786 1646.65 1281.27 1465.41C1645.56 1343.6 1899.81 1154.24 2062.98 1035.77C2124.31 991.298 2181.83 945.762 2236.78 900.68C2538.01 655.388 2739.2 416.472 2897.07 251.628C3045.21 97.4859 3155.49 7.77828 3291.72 42.3863C3378.31 64.4717 3468.4 134.143 3524.87 203.663C3604.71 302.326 3604.94 382.774 3617.84 455.785C3624.44 493.732 3633.02 528.568 3657.68 560.747C3740.56 668.822 3930.9 684.304 4170.5 655.995C4430.29 625.638 4739.26 538.738 4977.64 460.035C5000.41 452.446 5022.65 444.856 5043.82 437.874C5394.84 318.871 5462.15 259.445 5596.64 240.547C5623.18 237.137 5649.88 235.11 5676.63 234.476C5787.97 230.283 5899.24 244.384 6006.02 276.218C6150.67 317.125 6292.75 381.939 6483.01 452.37C6533.71 471.116 6588.51 490.317 6648.24 509.746C6927.47 599.101 7214.59 661.643 7505.69 696.523" stroke="white" stroke-width="5" stroke-miterlimit="10"/>
<path d="M1 1580.32C237.564 1629.8 726.857 1697.73 1291.21 1512.01C1666.66 1388.45 1927.66 1192.72 2088.1 1071.82C2800.22 534.715 3025.63 -65.1575 3325.19 9.29528C3408.22 29.9387 3498.08 102.646 3552.87 176.264C3669.9 333.366 3596.13 452.521 3666.71 548.148C3839.75 782.663 4618.13 520.75 5055.59 373.59C5482.11 230.073 5497.9 183.853 5685.51 176.264C6013 162.83 6183.23 294.356 6649.37 449.485C6926.53 541.277 7210.86 609.82 7499.39 654.401" stroke="white" stroke-width="5" stroke-miterlimit="10"/>
<path d="M1 1602.02C243.863 1656.13 717.977 1718.14 1257.51 1540.4C1629.93 1417.37 1879.85 1219.74 2052.05 1092.62C2739.96 585.411 2954.52 36.0852 3259.69 85.1132C3378.92 104.239 3499.97 142.566 3579.89 201.308C3736.92 316.82 3678.55 420.113 3769.63 512.477C3969 714.812 4695.01 487.659 5111.52 352.642C5517.25 220.661 5533.65 183.321 5731.96 190.91C6061.49 203.509 6223.98 319.932 6663.11 468.837C6937.08 561.69 7219.19 628.545 7505.69 668.516" stroke="white" stroke-width="5" stroke-miterlimit="10"/>
<path d="M1 1624.64C406.021 1717.88 828.804 1698.85 1223.82 1569.62C1593.19 1447.2 1831.58 1247.52 2016 1114.25C2678.79 635.655 2886.29 128.678 3194.27 161.768C3350.54 178.616 3497.47 182.867 3606.91 227.265C3794.67 303.16 3758.09 387.403 3872.54 477.718C4091.19 650.075 4771.89 455.405 5167.53 332.531C5551.79 212.086 5568.86 182.867 5778.48 206.394C6109.23 243.431 6264.74 347.103 6676.85 489.102C6947.56 582.951 7227.37 648.122 7511.69 683.544" stroke="white" stroke-width="5" stroke-miterlimit="10"/>
<path d="M1 1664.86C394.228 1759.22 805.939 1742.45 1190.19 1616.44C1556.46 1494.56 1783.39 1292.83 1979.95 1153.48C2616.25 702.518 2820.26 291.472 3128.77 256.029C3321.77 233.868 3492.46 242.975 3634 270.752C3847.87 312.646 3835.43 372.376 3975.53 460.489C4207.46 606.359 4848.92 441.516 5223.47 330.026C5586.85 221.876 5603.77 199.336 5824.93 239.408C6156.74 299.517 6305.42 391.729 6690.66 526.897C6958.14 621.855 7235.76 685.376 7517.91 716.179" stroke="white" stroke-width="5" stroke-miterlimit="10"/>
<path d="M1 1726.11C382.404 1821.53 783.037 1806.95 1156.5 1684.06C1519.73 1562.63 1735.12 1358.86 1943.9 1213.52C2553.26 789.342 2755.14 417.533 3063.35 371.086C3292.32 336.629 3494.51 283.958 3661.02 335.036C3890.15 405.314 3898.72 410.171 4078.44 464.057C4294.67 628.065 4925.88 448.195 5279.48 348.317C5621.76 251.931 5638.61 235.993 5871.45 293.293C6204.1 375.184 6346.02 457.454 6704.4 585.488C6968.66 681.523 7244.11 743.373 7524.06 769.533" stroke="white" stroke-width="5" stroke-miterlimit="10"/>
<path d="M1 1788.8C370.562 1885.35 760.139 1873.18 1122.95 1753.74C1483.15 1632.91 1686.92 1426.86 1908.01 1275.6C2489.81 877.456 2689.42 541.47 2997.55 488.192C3263.18 442.351 3484.19 369.644 3688.19 401.444C3951.24 442.427 3974.54 426.338 4181.51 469.749C4408.36 615.695 5002.76 456.316 5335.11 368.658C5656.29 284.035 5673.14 273.941 5917.6 349.229C6251.53 451.838 6386.25 525.38 6717.83 646.129C6978.88 743.249 7252.21 803.433 7529.9 824.937" stroke="white" stroke-width="5" stroke-miterlimit="10"/>
<path d="M1 1852.7C358.636 1950.19 737.051 1940.29 1089.1 1824.24C1446.26 1703.95 1638.28 1495.62 1871.8 1338.52C2425.84 965.797 2623.16 663.811 2932.43 606.131C3233.96 549.893 3477.81 503.749 3715.06 468.61C4008.01 425.198 4050.06 443.185 4284.27 476.2C4522.12 604.538 5079.64 465.574 5391.42 389.831C5691.51 316.972 5708.36 312.267 5964.42 405.997C6298.97 528.491 6427 594.444 6731.57 707.679C6989.42 805.846 7260.66 864.367 7536.05 881.25" stroke="white" stroke-width="5" stroke-miterlimit="10"/>
<path d="M1 1917.44C283.556 1999.18 665.078 2026.73 1055.48 1895.66C1409.83 1776.66 1589.78 1565.14 1835.75 1402.34C2361.48 1054.44 2556.75 785.319 2866.93 724.983C3205.12 659.258 3474.09 594.975 3742.15 536.688C4063.19 466.789 4133.01 417.989 4387.26 483.562C4650.69 551.488 5156.53 475.972 5447.35 411.917C5726.34 350.746 5743.34 351.201 6010.87 463.601C6347.09 605.297 6467.45 664.571 6745.68 770.065C6918.65 835.638 7179.57 921.399 7542.58 938.399" stroke="white" stroke-width="5" stroke-miterlimit="10"/>
<path d="M1 1983.32C290.159 2069.53 656.199 2091.32 1021.78 1968.14C1373.1 1849.74 1541.13 1635.49 1799.7 1467.23C2296.74 1143.69 2489.21 906.674 2801.51 844.896C3176.43 770.671 3471.06 687.718 3769.17 605.828C4119.12 509.669 4206.48 436.506 4490.17 491.985C4760.58 545.112 5233.33 486.825 5503.36 435.064C5761.41 385.581 5779.01 390.135 6057.4 522.343C6395.28 682.709 6507.75 736.063 6759.42 833.512C6929.88 899.54 7186.94 985.301 7548.73 996.686" stroke="white" stroke-width="5" stroke-miterlimit="10"/>
<path d="M1 2049.95C296.989 2141.03 647.319 2156.66 988.086 2041.45C1336.37 1923.66 1492.33 1706.61 1763.65 1532.96C2231.77 1233.33 2421.66 1028.11 2736.02 965.645C3148.05 883.755 3468.4 781.525 3796.19 675.803C4175.66 553.461 4280.02 457.606 4593.08 501.245C4870.86 539.951 5310.14 498.892 5559.3 459.048C5795.94 421.1 5814.68 429.828 6103.84 581.921C6443.85 760.653 6547.98 808.619 6773.16 897.795C6941.19 964.355 7194.22 1050.42 7554.87 1055.73" stroke="white" stroke-width="5" stroke-miterlimit="10"/>
<path d="M1 2117.58C303.289 2212.97 638.515 2222.92 954.389 2115.68C1299.63 1998.42 1443.38 1778.33 1727.6 1599.59C2166.5 1323.49 2348.65 1113.03 2670.6 1087.3C3127.03 1050.8 3465.97 876.317 3823.21 746.688C4232.51 598.238 4369.65 405.162 4696 511.415C4968.61 600.439 5386.64 511.415 5615.31 483.941C5830.7 457.757 5850.58 470.128 6150.37 642.333C6492.73 839.128 6588.05 882.388 6786.9 962.988C6952.42 1030.16 7201.58 1116.3 7561.02 1115.76" stroke="white" stroke-width="5" stroke-miterlimit="10"/>
<path d="M1 2187.4C309.891 2287.43 629.636 2291.22 920.768 2192.56C1262.9 2075.83 1394.27 1852.4 1691.55 1668.89C2101.39 1415.93 2281.03 1242.59 2605.1 1211.62C3098.41 1164.34 3463.85 973.842 3850.3 820.231C4289.73 645.673 4437.5 439.922 4798.99 524.241C5085.72 591.181 5463.67 527.125 5671.24 511.491C5865.46 496.843 5887.09 512.781 6196.81 705.478C6541.91 920.108 6628.12 959.042 6800.71 1030.84C6963.65 1098.69 7208.95 1184.75 7567.24 1178.38" stroke="white" stroke-width="5" stroke-miterlimit="10"/>
<path d="M1 2261.62C316.418 2366.28 620.68 2364.23 887.07 2273.01C1226.17 2156.81 1344.94 1929.74 1655.5 1741.74C2035.43 1511.71 2213.33 1375.7 2539.68 1339.5C3070.03 1280.68 3461.87 1075.01 3877.32 897.416C4347.26 696.522 4507.25 482.423 4901.9 540.71C5201.99 585.033 5540.33 546.023 5727.25 542.608C5900.14 539.42 5923.75 558.849 6243.34 772.189C6591.31 1004.5 6668.35 1039.57 6814.45 1102.33C6974.81 1171.09 7216.69 1256.85 7573.39 1244.63" stroke="white" stroke-width="5" stroke-miterlimit="10"/>
<path d="M1 2337.14C323.021 2446.43 611.8 2438.38 853.373 2355.2C1189.43 2239.46 1295.38 2008.29 1619.45 1816.35C1969.71 1608.85 2145.4 1510.42 2474.18 1469.13C3041.27 1397.94 3460.05 1177.85 3904.34 976.271C4405.24 749.118 4578.74 529.782 5004.81 558.849C5317.5 580.176 5617.05 566.439 5783.19 575.47C5934.67 583.591 5960.63 606.36 6289.79 840.647C6641.1 1090.57 6707.81 1122.44 6828.18 1175.57C6985.82 1245.47 7223.59 1330.78 7579.54 1312.64" stroke="white" stroke-width="5" stroke-miterlimit="10"/>
<path d="M1 2419.33C329.624 2533.18 602.693 2518.76 819.676 2444C1152.47 2328.03 1245.45 2092.83 1583.4 1897.56C1903.83 1712.37 2077.4 1651.66 2408.76 1605.36C3012.27 1521.04 3458.38 1287.36 3931.05 1061.73C4462.32 808.315 4653.5 618.199 5107.42 583.591C5430.89 559.001 5693.4 593.457 5838.89 614.935C5969.21 634.213 5997.51 660.472 6336.01 915.63C6690.74 1183.24 6747.2 1211.62 6841.62 1255.26C6996.29 1326.83 7230.65 1411.15 7585.38 1387.16" stroke="white" stroke-width="5" stroke-miterlimit="10"/>
<path d="M1 2500.69C336.151 2619.16 593.813 2598.82 786.055 2532.04C1115.74 2416.6 1195.05 2175.79 1547.35 1978.01C1837.88 1814.91 2009.25 1792.06 2343.26 1740.83C2983.13 1642.7 3456.79 1396.04 3958.45 1146.5C4520.76 866.679 4729.92 660.776 5210.71 607.65C5544.65 570.917 5770.59 619.262 5895.13 653.642C6004.35 684 6035.23 713.599 6382.76 989.932C6741.28 1274.99 6786.97 1300.57 6855.73 1334.34C7006.91 1408.57 7238.32 1490.76 7591.91 1460.93" stroke="white" stroke-width="5" stroke-miterlimit="10"/>
<path d="M1 2582.13C342.526 2705.15 585.389 2678.97 752.357 2620.07C1078.7 2505.17 1144.13 2257.53 1511.3 2058.45C1771.93 1917.14 1941.02 1932.47 2277.84 1876.31C2953.68 1763.6 3455.27 1504.42 3985.47 1231.2C4578.82 925.041 4806.58 703.049 5313.63 631.632C5659.33 582.983 5847.7 644.686 5951.14 692.348C6039.41 733.027 6072.57 766.649 6429.28 1064.23C6791.68 1366.82 6826.21 1389.82 6869.47 1413.35C7015.72 1492.96 7245.6 1570.45 7598.06 1534.78" stroke="white" stroke-width="5" stroke-miterlimit="10"/>
</svg>
