<svg width="8132" height="2906" viewBox="0 0 8132 2906" fill="none" xmlns="http://www.w3.org/2000/svg">
<path d="M211.234 269.3C496.647 412.421 749.515 612.807 954.071 857.961C1255.55 1223.77 1239.15 1447.88 1528.72 1656.86C1810.16 1859.81 2196.43 1915.73 2509.82 1839.06C2937.45 1734.37 2956.79 1449.43 3504.95 998.119C3827.31 732.941 4431.81 235.101 5144.79 283.316C5505 307.703 5863.1 469.445 6195.98 619.694C6603.98 803.861 6662.56 898.467 6882.75 942.056C7144.29 993.914 7548.64 957.053 8130.16 493.552" stroke="white" stroke-width="5" stroke-miterlimit="10"/>
<path d="M203.248 321.719C460.432 447.453 692.283 619.44 887.219 829.089C905.86 849.412 924.501 870.295 943.282 891.739C1247.85 1246.06 1235.79 1460.08 1521.71 1663.87C1646.35 1753.04 1787.46 1816.55 1936.86 1850.7C2043.87 1875.06 2153.62 1885.24 2263.29 1880.97C2345.3 1877.74 2426.68 1865.28 2505.9 1843.83C2594.18 1821.14 2678.1 1784.01 2754.26 1733.95C2894.42 1641.44 2992.53 1516.56 3143.48 1359.87C3257.19 1241.94 3380.89 1134.08 3513.22 1037.5C3583.3 985.645 3665.15 923.135 3759.76 859.083C4012.88 687.25 4336.79 500.56 4725.44 436.087C4857.32 413.584 4991.32 406.062 5124.89 413.662C5145.36 414.783 5165.68 416.465 5185.72 418.427C5384.19 437.629 5573.26 488.506 5766.4 556.062C5910.9 605.958 6047.55 668.188 6183.09 726.634C6239.85 751.582 6290.59 774.287 6336.42 795.591C6613.23 924.676 6685.13 993.914 6874.2 1024.19C7017.87 1047.17 7203.72 1043.11 7439.6 961.258C7633.02 894.262 7862.04 773.587 8130.16 574.002" stroke="white" stroke-width="5" stroke-miterlimit="10"/>
<path d="M195.82 374.418C450.341 495.401 680.764 661.617 875.867 864.969C894.554 884.591 913.242 904.681 931.93 925.237C1240.28 1268.2 1232.85 1471.85 1514.85 1670.88C1639.78 1761.22 1781.34 1825.95 1931.4 1861.35C2039.04 1885.87 2149.51 1895.68 2259.79 1890.5C2341.92 1886.32 2423.24 1872.2 2501.98 1848.45C2589.82 1823.07 2673.28 1784.45 2749.5 1733.95C2895.26 1638.64 2998.7 1517.82 3147.97 1371.5C3262.21 1260.44 3387.34 1161.17 3521.49 1075.21C3591.57 1029.23 3671.6 972.891 3765.22 917.108C4014.7 768.401 4318.85 612.405 4703.58 561.528C4836.5 543.215 4970.83 537.209 5104.85 543.588C5125.6 544.709 5146.06 546.111 5166.24 547.933C5368.07 565.593 5552.38 609.182 5749.44 669.309C5897.87 714.72 6033.26 775.829 6169.91 833.434C6226.68 857.261 6277.97 878.985 6324.93 899.308C6602.58 1019.98 6677 1083.62 6865.38 1106.04C7008.9 1123.14 7193.34 1113.75 7430.49 1030.92C7624.19 963.08 7856.15 844.646 8130.16 654.733" stroke="white" stroke-width="5" stroke-miterlimit="10"/>
<path d="M186.99 426.275C439.43 542.677 668.913 703.467 864.514 900.989C883.155 920.05 901.936 939.392 920.577 959.154C1232.99 1290.63 1229.48 1484.18 1507.7 1677.88C1639.45 1769.55 1769.23 1835.56 1925.51 1872.14C2033.87 1896.86 2145.16 1906.3 2256.14 1900.17C2338.43 1895 2419.7 1879.17 2497.91 1853.08C2585.36 1825.01 2668.48 1784.92 2744.87 1733.95C2895.96 1635.83 3004.59 1519.36 3152.31 1383.55C3267.19 1279.3 3393.86 1188.85 3529.76 1114.03C3600.54 1073.94 3678.18 1023.77 3770.69 976.254C4017.79 849.271 4300.91 724.951 4681.72 687.389C4815.68 673.319 4950.49 668.87 5085.09 674.074C5105.97 675.055 5127.14 676.316 5146.76 677.998C5344.79 694.217 5540.79 729.466 5732.06 783.257C5884.41 824.042 6018.68 884.59 6157.02 940.653C6213.78 963.639 6265.5 984.242 6313.71 1003.58C6592.07 1115.71 6669.15 1173.46 6856.69 1188.45C7000.21 1199.94 7183.67 1184.81 7421.66 1100.99C7615.78 1033.16 7850.27 915.565 8130.16 734.622" stroke="white" stroke-width="5" stroke-miterlimit="10"/>
<path d="M178.859 478.555C428.859 590.431 657.132 745.586 853.159 936.87C871.8 955.371 890.722 973.871 909.222 992.933C1225 1313.47 1226.4 1495.68 1500.69 1685.03C1635.38 1777.67 1760.82 1845.51 1919.9 1882.93C2028.89 1907.9 2140.92 1916.91 2252.5 1909.7C2335.16 1903.71 2416.58 1886.21 2494.41 1857.7C2581.27 1827.19 2663.95 1785.89 2740.53 1734.79C2896.94 1633.73 3011.45 1522.03 3157.08 1395.47C3259.81 1306.32 3381.33 1228.4 3538.45 1152.71C3609.79 1118.23 3685.75 1074.08 3776.71 1034.98C4022.83 929.161 4283.52 837.358 4659.71 813.111C4794.53 803.167 4929.78 800.219 5064.9 804.281C5086.07 805.122 5106.95 806.243 5126.99 807.645C5325.38 820.652 5522.31 850.472 5715.66 896.785C5872.21 932.945 6004.52 993.073 6144.26 1047.17C6200.32 1069.32 6253.44 1089.22 6302.78 1107.3C6581.69 1211.58 6661.44 1262.74 6848.41 1270.16C6991.94 1275.91 7174.14 1255.31 7413.11 1170.65C7607.23 1101.84 7844.52 986.345 8130.16 814.652" stroke="white" stroke-width="5" stroke-miterlimit="10"/>
<path d="M170.873 530.833C418.376 638.259 645.382 787.779 841.809 972.75C860.45 990.55 879.371 1008.21 897.872 1026.43C1217.43 1334.78 1223.18 1507.87 1493.4 1691.9C1631.04 1785.66 1752.13 1855.32 1913.88 1893.58C2023.59 1918.76 2136.45 1927.36 2248.71 1919.09C2331.4 1912.23 2412.6 1893.1 2489.65 1862.33C2575.99 1829.24 2658.31 1786.5 2735.06 1734.93C2896.94 1631.21 3017.48 1524.69 3160.72 1407.38C3266.54 1321.04 3390.72 1253.2 3546.02 1191.26C3618.2 1162.38 3692.48 1124.54 3781.48 1093.14C4028.58 1007.65 4265.31 949.203 4637.57 937.991C4766.93 934.066 4910.03 929.161 5044.72 933.786C5066.17 934.487 5086.77 935.468 5107.24 936.589C5305.68 946.375 5503.13 970.735 5698 1009.47C5858.48 1041.01 5989.81 1100.71 6131.09 1153.69C6187.85 1175 6240.69 1193.36 6291.29 1210.74C6570.76 1307.87 6653.6 1355.52 6839.31 1352.58C6982.83 1350.33 7163.91 1326.37 7403.72 1240.45C7597.98 1170.37 7838.21 1057.26 8129.6 894.962" stroke="white" stroke-width="5" stroke-miterlimit="10"/>
<path d="M162.742 582.972C407.794 686.057 633.571 829.987 830.455 1008.63C849.096 1025.73 868.157 1042.69 886.518 1060.07C1210 1357.2 1220.09 1519.64 1486.25 1698.91C1626.41 1793.51 1743.44 1865.13 1908.13 1904.38C2018.36 1929.61 2131.8 1937.79 2244.51 1928.62C2327.46 1920.81 2408.67 1900 2485.16 1866.95C2570.8 1831.14 2652.71 1787.01 2729.73 1735.21C2896.94 1628.55 3024.07 1526.65 3164.22 1419.15C3273.27 1335.06 3400.25 1278.15 3553.44 1229.8C3626.75 1206.53 3706.49 1193.08 3786.1 1152.57C4044.42 1141.78 4247.64 1040.45 4614.72 1064.27C4744.36 1072.82 4889.71 1060.91 5023.84 1064.27C5045.56 1064.97 5066.59 1065.67 5086.77 1066.66C5302.89 1076.89 5468.28 1088.8 5680.2 1122.72C5844.6 1149.49 5974.53 1208.92 6117.35 1260.21C6173.41 1280.68 6227.38 1298.06 6279.23 1314.45C6558.85 1403.03 6644.63 1440.6 6830.05 1433.59C6973.72 1427.84 7153.68 1396.17 7394.33 1309.55C7588.87 1239.47 7831.62 1127.34 8129.04 974.432" stroke="white" stroke-width="5" stroke-miterlimit="10"/>
<path d="M154.615 635.251C397.188 733.988 621.724 872.233 819.104 1044.37C837.885 1060.91 856.947 1077.03 875.167 1093.57C1203.28 1379.21 1217.57 1531.28 1479.67 1705.91C1623.33 1801.5 1735.46 1874.94 1902.81 1915.17C2013.99 1940.72 2128.52 1948.43 2242.13 1938.02C2334.49 1930.31 2410.32 1902.56 2482.36 1871.44C2567.36 1832.98 2648.98 1787.45 2726.37 1735.35C2898.91 1625.88 3033.18 1529.32 3170.11 1430.93C3282.24 1350.05 3412.59 1303.38 3562.56 1268.2C3637.4 1250.68 3715.33 1246.62 3792.55 1211.3C4050.87 1231.2 4230.27 1175.56 4593.7 1189.71C4724.04 1194.9 4871.07 1191.82 5004.78 1194.76C5026.64 1194.76 5047.95 1195.74 5067.99 1196.44C5287.76 1204.71 5448.38 1208.92 5664.08 1237.09C5832.27 1259.23 5960.94 1318.24 6105.3 1367.99C6161.36 1387.62 6215.74 1403.87 6268.86 1419.29C6549.18 1500.3 6637.62 1531.42 6822.35 1516.42C6966.01 1505.07 7144.71 1467.93 7386.34 1380.33C7581.02 1310.25 7826.58 1199.24 8129.88 1055.72" stroke="white" stroke-width="5" stroke-miterlimit="10"/>
<path d="M146.621 687.39C386.602 781.93 609.825 914.434 807.746 1079.83C826.527 1095.81 845.729 1111.23 864.65 1126.78C1196.12 1400.93 1215.05 1542.49 1472.66 1712.36C1619.26 1808.93 1727.04 1884.33 1897.19 1925.26C2008.91 1951.1 2124.1 1958.48 2238.2 1947.13C2331.82 1938.58 2406.39 1908.58 2478.01 1875.65C2566.45 1835 2639.19 1787.35 2721.18 1735.49C2899.18 1623.36 3060.22 1555.95 3174.17 1442.7C3303.26 1387.62 3423.93 1282.5 3570.96 1306.75C3647.49 1319.36 3723.73 1300.02 3798.3 1270.02C4056.75 1320.48 4213.3 1288.67 4572.11 1315.3C4703.02 1324.97 4852.42 1322.72 4985.01 1324.83C5007.3 1324.83 5028.6 1324.83 5048.78 1326.09C5271.92 1332.39 5427.91 1328.47 5647.26 1350.62C5819.79 1367.85 5946.78 1426.58 6092.54 1474.79C6148.6 1493.58 6203.55 1508.85 6257.79 1523.15C6538.1 1596.73 6630.05 1620.42 6814.07 1598.41C6957.88 1581.17 7135.46 1538.57 7377.79 1449.99C7572.75 1379.07 7820.41 1270.02 8130.16 1135.89" stroke="white" stroke-width="5" stroke-miterlimit="10"/>
<path d="M138.494 739.528C376.023 830.07 597.988 957.082 796.395 1115.99C815.177 1131.27 834.378 1145.28 853.44 1160.56C1189.82 1423.22 1211.82 1554.26 1465.65 1719.51C1615.34 1816.92 1718.63 1894.29 1891.45 1936.19C2003.87 1962.15 2119.84 1969.11 2234.56 1956.8C2329.44 1947.41 2402.75 1914.75 2474.09 1880.41C2560.84 1838.36 2632.74 1788.47 2716.42 1735.63C2899.75 1620.42 3069.2 1560.99 3178.94 1454.33C3312.51 1405.28 3440.75 1306.89 3579.65 1345.15C3655.62 1366.03 3732.28 1353.56 3803.9 1328.75C4062.5 1409.76 4196.35 1402.05 4550.39 1440.88C4681.85 1454.89 4832.38 1453.77 4965.25 1454.89H5029.3C5256.08 1459.1 5407.73 1447.46 5630.44 1463.3C5807.04 1475.78 5932.48 1534.36 6079.79 1580.89C6135.85 1598.83 6191.21 1612.99 6246.72 1626.16C6527.03 1692.6 6622.34 1709 6805.67 1679.71C6949.47 1656.58 7125.93 1608.5 7369.1 1519.08C7564.2 1447.46 7815.22 1340.24 8130.3 1215.36" stroke="white" stroke-width="5" stroke-miterlimit="10"/>
<path d="M130.367 791.526C365.159 878.22 585.643 999.587 784.484 1151.59C803.406 1165.61 822.607 1179.62 841.669 1193.64C1181.69 1444.66 1208.46 1565.2 1458.36 1726.24C1611.14 1824.35 1710.65 1903.82 1885.56 1946.56C1998.61 1972.85 2115.35 1979.44 2230.63 1966.05C2326.92 1955.81 2398.82 1921.34 2469.74 1884.76C2554.82 1840.47 2626.02 1789.31 2711.38 1735.63C2900.17 1617.61 3077.89 1565.9 3182.59 1465.96C3320.78 1422.8 3448.89 1407.38 3587.22 1383.41C3666.55 1398.55 3739.71 1406.82 3808.95 1387.34C4067.54 1499.46 4178.41 1515.44 4527.96 1566.04C4659.99 1585.24 4812.48 1586.22 4944.79 1584.68C4967.5 1584.68 4989.22 1584.68 5009.26 1584.68C5239.68 1581.73 5386.29 1567.16 5612.93 1576.97C5793.73 1584.68 5917.49 1642.98 6066.48 1687.97C6122.54 1704.93 6178.6 1718.25 6234.67 1730.02C6514.98 1789.31 6613.09 1798.14 6796.14 1761.56C6940.08 1732.68 7115.28 1679.14 7359.57 1588.74C7554.81 1516.56 7808.08 1411.02 8129.46 1295.39" stroke="white" stroke-width="5" stroke-miterlimit="10"/>
<path d="M122.377 843.665C354.853 926.461 574.241 1042.2 773.831 1187.33C792.612 1201.35 811.954 1214.38 831.015 1227.56C1175.52 1466.81 1206.22 1576.97 1451.63 1733.1C1607.49 1832.34 1701.82 1913.63 1880.1 1957.36C1994.11 1983.96 2111.95 1990.08 2228.11 1975.44C2326.22 1964.36 2397 1927.78 2466.38 1889.38C2550.47 1843.27 2620.55 1790.43 2707.31 1735.21C2901.29 1614.39 3087.56 1570.38 3187.49 1477.18C3330.17 1440.04 3460.24 1435.13 3596.05 1421.11C3676.36 1443.54 3748.4 1459.52 3815.12 1445.22C4073.71 1587.48 4161.73 1628.41 4506.66 1690.78C4639.25 1714.74 4793.56 1716.43 4925.45 1714.04C4948.43 1714.04 4970.16 1714.04 4990.34 1714.04C5224.13 1708.86 5366.25 1686.01 5596.52 1690.08C5781.25 1693.02 5903.61 1751.19 6054.14 1794.49C6110.2 1810.75 6166.27 1822.53 6224.43 1833.88C6504.75 1886.3 6606.78 1887.42 6788.57 1843.55C6932.51 1808.79 7106.59 1749.92 7351.72 1658.54C7547.1 1585.8 7803.73 1481.94 8130.44 1375.7" stroke="white" stroke-width="5" stroke-miterlimit="10"/>
<path d="M114.25 895.663C344.229 974.769 562.323 1084.92 762.48 1223.07C781.402 1237.09 800.743 1248.58 819.805 1261.05C1168.94 1488.39 1203.56 1588.18 1444.63 1739.97C1603.57 1839.9 1693.41 1923.16 1874.49 1967.87C1988.93 1994.64 2107.28 2000.38 2223.77 1984.83C2321.88 1972.77 2393.08 1934.09 2462.04 1893.72C2543.89 1845.79 2613.41 1791.27 2702.27 1735.91C2901.71 1612.15 3096.25 1575.99 3191.56 1489.37C3338.86 1458.12 3470.33 1462.88 3604.04 1460.36C3685.19 1489.93 3756.25 1513.76 3820.31 1504.65C4079.04 1677.6 4144.07 1742.92 4484.51 1817.06C4617.66 1845.93 4773.8 1846.21 4904.99 1845.09C4928.25 1845.09 4950.12 1845.09 4970.3 1845.09C5207.73 1837.66 5345.22 1812.99 5579.15 1805.01C5767.8 1798.56 5888.76 1861.07 6040.83 1903.12C6097.45 1918.38 6154.86 1930.55 6212.8 1939.56C6493.12 1985.25 6598.52 1978.52 6779.6 1927.36C6923.68 1886.72 7096.5 1822.52 7342.47 1730.16C7538.7 1656.86 7797.43 1554.54 8130.02 1457.69" stroke="white" stroke-width="5" stroke-miterlimit="10"/>
<path d="M106.119 917.668C333.631 993.402 550.423 1098.17 751.126 1229.38C770.047 1241.99 789.529 1253.49 808.731 1265.12C1162.35 1480.54 1201.17 1569.96 1437.62 1717.27C1599.64 1818.18 1685 1903.4 1868.75 1948.95C1983.87 1975.98 2103.03 1981.35 2220.12 1964.78C2320.19 1951.75 2389.85 1911.1 2458.39 1868.78C2538.14 1818.04 2606.54 1761.98 2697.5 1705.91C2902.27 1579.77 3105.36 1550.76 3195.9 1471.01C3347.69 1445.64 3480.7 1460.5 3612.31 1468.63C3694.3 1505.49 3764.24 1537.02 3825.77 1533.24C4084.64 1736.75 4126.83 1827.57 4462.51 1911.66C4596.36 1945.44 4754.32 1946.14 4885.22 1944.04L4950.82 1942.78C5191.89 1938.58 5324.62 1895.13 5562.19 1886.72C5755.18 1879.71 5874.32 1937.87 6027.93 1977.82C6085.17 1992.3 6143.2 2003.48 6201.73 2011.32C6481.34 2050.28 6590.81 2035.42 6771.05 1977.12C6915.27 1930.59 7086.97 1861.07 7333.78 1767.72C7530 1693.86 7791.68 1593.23 8130.16 1505.77" stroke="white" stroke-width="5" stroke-miterlimit="10"/>
<path d="M97.709 926.498C322.673 998.384 538.118 1097.21 739.352 1220.83C758.413 1232.88 777.895 1243.53 797.097 1254.33C1155.9 1458.12 1198.09 1537.73 1430.61 1680.13C1595.86 1781.74 1676.59 1869.06 1863.14 1915.59C1979.01 1942.66 2098.97 1947.42 2216.62 1929.61C2317.81 1915.59 2386.63 1873.54 2454.18 1828.69C2532.53 1777.25 2600.51 1719.23 2692.45 1662.18C2902.69 1532.82 3114.05 1511.94 3199.96 1438.91C3356.38 1419.43 3495.84 1422.52 3620.44 1463.3C3709.72 1492.59 3772.23 1547.4 3830.68 1547.4C4089.55 1781.46 4108.75 1897.79 4439.94 1993.24C4574.21 2032.2 4734.27 2033.18 4864.48 2030.24C4888.31 2030.24 4910.45 2029.12 4930.49 2028.56C5175.21 2022.11 5303.17 1970.67 5544.53 1956.1C5741.45 1944.18 5859.18 2002.35 6014.34 2040.19C6072.13 2054.06 6130.74 2064.26 6189.81 2070.74C6469.29 2103.26 6582.26 2080.13 6761.8 2014.68C6906.02 1962.12 7076.59 1887.28 7324.25 1793.09C7520.47 1718.67 7785.09 1619.72 8129.46 1540.81" stroke="white" stroke-width="5" stroke-miterlimit="10"/>
<path d="M89.998 935.047C312.506 1003.53 526.646 1096.7 728.417 1212.84C747.619 1224.19 767.241 1234 786.303 1244.09C1149.59 1435.27 1195.56 1504.23 1423.6 1642.98C1591.79 1745.3 1668.04 1834.72 1858.09 1882.09C1974.56 1909.97 2095.37 1914.73 2213.67 1896.11C2316.27 1881.11 2384.1 1836.54 2450.82 1790.43C2527.62 1737.31 2594.76 1677.32 2689.09 1619.44C2904.51 1487.27 3124.28 1474.23 3205.71 1407.8C3366.47 1393.78 3508.73 1409.34 3629.83 1458.96C3720.79 1496.24 3781.48 1557.07 3837.82 1563.93C4096.69 1828.69 4092.91 1970.39 4419.76 2076.63C4554.59 2120.78 4716.19 2121.9 4846.26 2118.68L4912.69 2116.43C5160.91 2107.88 5284.25 2048.32 5529.39 2027.86C5730.51 2010.9 5846.56 2069.9 6003.4 2105.64C6061.74 2119.02 6120.94 2128.39 6180.56 2133.67C6459.76 2159.88 6576.37 2128.35 6755.21 2055.75C6899.43 1997.3 7068.74 1917.13 7317.38 1821.96C7580.57 1717.25 7852.58 1636.2 8130.16 1579.77" stroke="white" stroke-width="5" stroke-miterlimit="10"/>
<path d="M81.8711 937.851C301.968 1003.26 514.806 1090.98 717.067 1199.66C736.409 1210.32 756.031 1219.43 775.092 1228.68C1143.29 1407.66 1192.9 1466.95 1416.59 1600.94C1588.15 1703.95 1659.63 1795.47 1851.79 1843.83C1968.99 1871.83 2090.64 1875.93 2209.47 1855.88C2313.19 1839.9 2380.18 1793.37 2446.2 1745.3C2521.32 1690.5 2587.61 1628.69 2683.34 1569.96C2904.23 1434.99 3131.85 1429.8 3209.07 1369.96C3374.46 1362.39 3518.96 1389.58 3637.12 1447.74C3729.62 1493.29 3788.63 1561.13 3842.31 1573.04C4101.32 1868.36 4074.41 2035.56 4396.77 2152.6C4532.17 2201.93 4695.73 2203.05 4825.24 2198.71C4849.48 2197.87 4872.05 2196.75 4892.09 2195.9C5144.38 2185.11 5262.53 2117.7 5511.17 2091.21C5716.22 2069.34 5830.87 2127.79 5989.25 2162.41C6048.18 2174.99 6107.95 2183.24 6168.09 2187.07C6447.14 2207.12 6567.26 2166.89 6745.4 2087.28C6889.62 2022.81 7057.81 1937.45 7307.29 1841.17C7572.81 1735.89 7848.59 1658.62 8130.16 1610.61" stroke="white" stroke-width="5" stroke-miterlimit="10"/>
<path d="M73.7402 929.861C291.469 992.139 503.016 1074.29 705.712 1175.28C725.054 1185.23 744.816 1193.64 763.878 1202.19C1137.12 1368.55 1190.94 1417.33 1409.59 1547.68C1584.36 1651.39 1651.22 1745.16 1846.18 1794.21C1964.03 1822.54 2086.46 1826.26 2205.82 1805.15C2310.8 1788.05 2376.96 1739.69 2442.13 1689.66C2515.71 1633.59 2581.17 1569.54 2678.58 1509.97C2904.79 1372.2 3141.1 1374.58 3213.42 1321.6C3383.29 1319.92 3529.75 1359.44 3645.38 1426.16C3739.01 1480.26 3796.76 1554.54 3847.91 1571.64C4106.92 1897.65 4056.75 2090.23 4374.91 2217.91C4510.58 2272.57 4676.25 2273.97 4805.33 2268.65C4829.72 2267.66 4852.42 2266.4 4872.47 2265.42C5127.98 2252.53 5241.5 2176.84 5493.79 2144.47C5702.9 2117.56 5816.15 2176.14 5975.79 2209.08C6035.37 2220.92 6095.77 2228.18 6156.45 2230.8C6435.37 2244.82 6558.85 2195.76 6736.29 2109.15C6880.51 2039.07 7047.72 1947.97 7298.04 1850.84C7565.49 1744.49 7844.71 1670.57 8129.74 1630.65" stroke="white" stroke-width="5" stroke-miterlimit="10"/>
<path d="M65.7539 921.873C281.097 981.275 491.312 1057.91 694.362 1151.03C713.844 1160.28 733.606 1167.71 752.668 1175.56C1131.09 1329.73 1187.16 1368.27 1402.58 1494.42C1580.44 1598.69 1642.81 1694.7 1840.43 1744.74C1958.98 1773.48 2082.27 1776.77 2202.18 1754.41C2308.42 1736.05 2373.73 1686.15 2438.21 1634.01C2510.25 1575.85 2574.72 1510.39 2673.81 1449.99C2905.49 1309.83 3150.35 1319.36 3217.77 1273.11C3372.49 1274.95 3523.54 1320.47 3653.52 1404.44C3748.12 1467.23 3804.89 1547.82 3853.38 1570.24C4112.53 1926.8 4038.95 2144.89 4353.04 2283.22C4489 2343.35 4656.77 2344.47 4785.29 2338.59C4810.1 2337.46 4832.81 2336.06 4852.99 2334.8C5111.86 2319.38 5221.18 2236.69 5477.11 2197.73C5690.01 2165.91 5802.14 2224.5 5963.32 2255.75C6019.38 2266.54 6078.53 2268.23 6145.52 2274.39C6423.32 2300.04 6551.28 2224.64 6728.02 2130.87C6872.24 2054.35 7038.33 1958.48 7289.49 1860.37C7559.14 1752.97 7841.98 1682.26 8130.44 1650.13" stroke="white" stroke-width="5" stroke-miterlimit="10"/>
<path d="M57.623 913.884C270.685 970.484 479.633 1041.57 683.008 1126.64C702.63 1135.05 722.392 1141.92 741.594 1148.93C1124.79 1289.09 1185.19 1319.22 1395.57 1441.16C1576.79 1546.13 1633.84 1644.24 1834.83 1695.26C1954.26 1724.37 2078.59 1727.24 2199.24 1703.67C2306.6 1684.05 2371.07 1632.47 2434.84 1578.37C2504.92 1518.52 2568.83 1451.25 2669.61 1390C2906.75 1246.48 3160.16 1263.86 3222.67 1224.75C3381.53 1233.08 3534.34 1288.35 3661.78 1383.55C3756.95 1454.89 3813.01 1541.93 3858.85 1569.54C4118.14 1956.66 4021.01 2200.25 4331.04 2349.38C4467.41 2414.83 4637.14 2415.81 4765.53 2409.22C4790.48 2407.96 4813.46 2406.28 4833.5 2405.02C5096.02 2387.22 5200.58 2295.98 5460.29 2251.69C5677.39 2214.83 5787.42 2273.83 5950.84 2303.13C6011.86 2311.62 6073.29 2316.86 6134.87 2318.82C6413.08 2336.9 6543.85 2254.21 6720.03 2153.44C6864.11 2070.88 7029.22 1969.83 7280.66 1870.74C7552.32 1762.51 7838.58 1695.34 8130.02 1671.44" stroke="white" stroke-width="5" stroke-miterlimit="10"/>
<path d="M49.4961 905.895C260.373 959.834 468.121 1025.34 671.797 1102.12C691.419 1109.82 711.182 1116.13 730.383 1122.16C1118.62 1249.98 1182.67 1269.88 1389.13 1388.46C1573.01 1493.29 1625.43 1593.79 1829.08 1645.65C1949.02 1675.17 2074.02 1677.66 2195.03 1652.93C2303.66 1632.05 2367.43 1578.79 2430.22 1522.73C2499.18 1461.34 2561.83 1392.1 2664.42 1330.01C2906.76 1183.69 3168.99 1209.2 3226.46 1175.84C3389.9 1190.34 3544.86 1255.06 3670.06 1361.13C3765.5 1441.3 3821.01 1534.5 3864.31 1567.3C4123.61 1985.11 4002.93 2255.05 4309.18 2413.99C4445.83 2484.91 4617.52 2485.75 4745.35 2478.46C4770.58 2477.06 4793.7 2475.24 4813.74 2473.7C5080.04 2453.51 5179.7 2354.42 5443.19 2304.25C5664.36 2262.2 5772.85 2321.63 5937.53 2349.1C5999.12 2357.12 6061.14 2361.38 6123.24 2361.85C6401.87 2372.36 6535.44 2282.38 6710.92 2174.46C6855.14 2086.02 7019.27 1979.64 7271.55 1880.13C7545.39 1770.93 7835.22 1707.16 8129.6 1691.34" stroke="white" stroke-width="5" stroke-miterlimit="10"/>
<path d="M41.6445 897.906C281.735 958.875 497.158 1020.96 660.582 1077.87C680.484 1084.88 700.247 1090.2 719.308 1095.81C1112.73 1210.18 1180.29 1220.83 1381.69 1334.08C1569.37 1440.04 1617.72 1542.77 1823.61 1595.61C1944.21 1625.5 2070.02 1627.56 2191.53 1601.64C2301.41 1579.35 2364.48 1524.69 2426.43 1466.53C2493.71 1403.45 2555.52 1332.39 2659.79 1269.46C2907.59 1120.34 3178.38 1153.55 3230.94 1127.48C3398.86 1148.31 3555.7 1222.39 3678.46 1338.84C3774.05 1427.84 3835.3 1521.75 3870.06 1565.34C4192.42 1970.81 3984.85 2309.71 4287.45 2478.74C4424.24 2555.27 4598.32 2555.83 4725.58 2547.84C4751.09 2546.3 4774.22 2544.2 4794.4 2542.51C5063.92 2519.95 5158.81 2413.01 5426.23 2357.09C5651.47 2309.85 5758.41 2369.56 5924.77 2395.07C5986.79 2404.27 6049.53 2407.6 6112.16 2405.02C6390.94 2395.49 6527.59 2310.55 6702.51 2195.76C6846.59 2101.16 7009.46 1989.59 7263.14 1888.68C7539.32 1778.57 7832.8 1718.17 8130.02 1710.26" stroke="white" stroke-width="5" stroke-miterlimit="10"/>
<path d="M33.3789 889.917C276.132 949.063 490.154 1005.13 649.093 1053.48C669.135 1059.65 688.898 1064.27 707.959 1069.18C1106.85 1170.09 1177.63 1171.63 1374.55 1281.24C1565.59 1387.76 1609.17 1493.01 1817.73 1546.7C1939.08 1576.97 2065.8 1578.61 2187.89 1551.46C2298.89 1527.63 2361.12 1471.57 2422.23 1411.3C2488.1 1346.55 2548.37 1273.67 2654.89 1209.9C2908.02 1057.83 3186.51 1098.89 3235.29 1079.41C3427.86 1107.44 3579.23 1207.79 3686.6 1317.68C3782.04 1415.79 3842.45 1517.12 3875.39 1564.36C4187.24 2011.04 3966.49 2365.36 4265.31 2544.62C4402.24 2626.61 4578.7 2626.89 4705.4 2618.2C4731.19 2616.38 4754.6 2614.27 4774.64 2612.45C5047.81 2587.36 5138.07 2472.3 5409.14 2410.77C5638.29 2358.49 5743.69 2418.62 5911.6 2442.16C5974.25 2450.65 6037.58 2452.95 6100.68 2449.03C6379.59 2434.03 6519.47 2339.85 6693.82 2217.91C6837.77 2117.28 6999.65 2000.53 7254.46 1898.63C7451.94 1819.72 7738.98 1734.09 8130.16 1730.44" stroke="white" stroke-width="5" stroke-miterlimit="10"/>
<path d="M25.2441 881.928C270.521 939.673 483.14 989.008 637.734 1029.23C657.917 1034.42 677.679 1038.34 696.741 1043.25C1100.26 1129.73 1175.1 1122.3 1367.54 1227.98C1559.97 1333.66 1600.76 1442.56 1812.12 1497.08C1934.1 1527.87 2061.67 1529.12 2184.24 1500.72C2296.36 1475.21 2358.03 1418.03 2418.3 1355.8C2482.63 1289.51 2542.48 1214.66 2650.12 1150.05C2908.71 995.876 3195.62 1043.95 3239.63 1031.2C3436.83 1065.11 3588.34 1177.24 3694.86 1296.09C3790.03 1402.33 3849.03 1511.8 3880.85 1562.39C4180.65 2049.44 3947.98 2420.16 4243.44 2609.37C4380.37 2697.11 4559.07 2696.97 4685.5 2687.58C4711.42 2685.61 4734.97 2683.23 4755.57 2681.27C5032.25 2653.24 5117.88 2531.02 5392.59 2463.47C5625.81 2406.14 5729.81 2466.69 5899.26 2488.27C5962.55 2496.1 6026.47 2497.42 6090.02 2492.2C6369.07 2471.59 6511.89 2368.16 6685.83 2239.21C6829.63 2132.55 6990.53 2010.62 7246.46 1907.74C7444.22 1828.27 7733.93 1744.18 8131 1750.2" stroke="white" stroke-width="5" stroke-miterlimit="10"/>
<path d="M17.2578 873.938C264.917 930.001 476.135 972.89 626.384 1005.13C646.707 1009.47 666.469 1012.83 685.531 1016.2C1093.95 1089.22 1172.58 1072.96 1360.53 1174.86C1558.29 1281.94 1592.21 1392.1 1806.37 1447.6C1929.05 1478.93 2057.53 1479.75 2180.6 1449.99C2293.84 1422.66 2354.95 1364.35 2414.38 1300.3C2477.17 1232.18 2536.04 1155.66 2645.5 1090.06C2909.28 932.384 3206.83 968.405 3243.97 982.841C3435.71 1056.98 3597.31 1146.4 3703.13 1274.51C3797.88 1389.3 3856.32 1506.33 3886.46 1561.69C4173.08 2087.98 3929.35 2476.36 4221.58 2675.52C4358.51 2768.87 4539.59 2768.17 4665.46 2758.22C4691.8 2756.11 4715.35 2753.59 4735.53 2751.49C5015.85 2721.5 5096.58 2590.87 5375.07 2517.43C5612.22 2454.92 5714.68 2516.02 5885.81 2535.65C5949.74 2542.79 6014.25 2543.12 6078.25 2536.63C6357.44 2510.56 6503.35 2397.73 6676.58 2261.78C6820.38 2149.65 6980.3 2021.83 7237.21 1917.97C7435.12 1837.94 7727.77 1755.67 8130.58 1770.95" stroke="white" stroke-width="5" stroke-miterlimit="10"/>
<path d="M9.12695 865.95C259.309 921.032 468.985 956.352 615.03 980.459C635.493 983.823 655.255 986.626 674.457 989.289C1087.64 1048.44 1170.2 1023.63 1353.52 1121.46C1555.35 1229.38 1583.38 1341.5 1800.77 1397.57C1924.15 1429.3 2053.52 1429.69 2177.09 1398.69C2291.18 1369.4 2351.87 1310.25 2410.31 1244.52C2471.7 1174.44 2529.59 1096.37 2640.73 1030.07C2909.98 869.594 3213.84 930.282 3248.32 934.347C3458.55 959.435 3606.14 1115.43 3710.84 1252.78C3781.65 1348.61 3842.16 1451.63 3891.36 1560.15C4164.67 2124.7 3910.14 2531.72 4199.71 2740.84C4336.5 2839.79 4520.11 2838.95 4645.55 2828.16C4672.04 2825.91 4695.87 2823.11 4715.63 2820.87C4999.31 2787.93 5075.42 2649.59 5357.83 2570.69C5598.77 2502.85 5699.96 2564.94 5872.63 2582.32C5937.22 2588.77 6002.32 2588.07 6066.75 2580.22C6346.23 2548.68 6494.8 2426.04 6667.75 2283.5C6811.27 2164.51 6970.21 2032.34 7228.38 1927.64C7426.57 1847.05 7721.74 1766.32 8130.58 1790.99" stroke="white" stroke-width="5" stroke-miterlimit="10"/>
<path d="M1 857.961C253.284 910.66 461.699 939.533 603.679 956.071C1073.49 1010.73 1159.55 970.087 1346.52 1068.2C1551.15 1175.7 1575.39 1291.19 1795.02 1348.51C1919.1 1380.78 2049.37 1380.78 2173.45 1348.51C2408.63 1284.04 2415.08 1101.55 2635.97 970.087C2910.54 806.663 3222.67 878.564 3252.66 885.992C3652.39 984.103 3838.8 1422.94 3897.39 1558.75C4157.1 2160.3 3891.78 2587.08 4177.71 2806.15C4343.65 2933.27 4582.48 2904.26 4696.29 2890.25C4983.47 2855.21 5054.95 2708.88 5341.02 2623.95C5663.38 2528.08 5734.44 2665.99 6055.82 2623.95C6568.52 2556.25 6650.79 2169.84 7219.13 1937.17C7417.46 1856.02 7715.43 1776.97 8130.16 1811.03" stroke="white" stroke-width="5" stroke-miterlimit="10"/>
<path d="M8.56836 875.48C256.368 928.18 461.278 959.575 603.258 976.954C1060.59 1034.7 1149.87 996.577 1335.72 1094.83C1536.57 1201.35 1563.34 1313.47 1777.5 1371.22C1898.99 1403.31 2026.51 1404.95 2148.78 1375.98C2380.88 1321.18 2389.85 1143.18 2607.38 1016.76C2876.06 859.503 3178.8 924.956 3213.84 930.703C3541.67 983.822 3722.47 1306.89 3811.47 1479.28C3829.69 1514.46 3842.87 1544.73 3853.52 1566.6C4119.82 2136.06 3868.38 2546.16 4150.09 2753.03C4318.28 2876.23 4559.08 2845.25 4677.65 2831.94C4786.31 2820.01 4891.63 2787.17 4987.82 2735.23C5085.93 2686.04 5177.73 2630.53 5328.68 2593.67C5374.93 2582.46 5416.14 2576.29 5453.14 2570.97C5677.4 2538.59 5763.87 2618.34 6034.1 2570.27C6138.64 2551.91 6239.3 2515.94 6331.79 2463.89C6582.82 2323.73 6739.79 2071.44 7128.45 1887.28C7151.25 1876.44 7175.08 1865.88 7199.93 1855.6C7400.08 1772.35 7702.54 1689.52 8123.57 1721.33" stroke="white" stroke-width="5" stroke-miterlimit="10"/>
<path d="M16.1387 893C258.892 945.699 460.86 978.356 602.98 997.698C1047.56 1058.39 1139.64 1023.07 1324.93 1121.6C1522.14 1225.87 1551.29 1337.02 1759.42 1393.78C1878.41 1425.79 2003.29 1429.15 2123.83 1403.59C2352.43 1357.76 2364.62 1185.51 2578.65 1063.29C2841.58 913.183 3136.33 961.537 3174.74 975.413C3478.04 1084.03 3674.82 1329.31 3766.48 1491.75C3785.13 1524.83 3798.02 1553.84 3808.53 1574.31C4081 2112.37 3844.41 2504.81 4121.64 2699.91C4291.24 2819.04 4534.69 2786.25 4658.03 2773.49C4767.54 2762.25 4874.28 2732.14 4973.52 2684.49C5073.18 2640.06 5166.38 2591.99 5315.51 2563.54C5361.9 2554.57 5403.39 2551.2 5440.39 2545.88C5663.94 2513.5 5746.64 2576.43 6011.39 2516.44C6114.73 2492.63 6213.67 2452.71 6304.6 2398.15C6546.24 2257.99 6711.06 1996.88 7107.57 1806.55C7130.7 1795.61 7154.8 1784.68 7179.89 1774.03C7381.72 1688.67 7688.66 1602.06 8116.15 1631.49" stroke="white" stroke-width="5" stroke-miterlimit="10"/>
<path d="M23.707 910.521C261.415 963.08 460.299 997.698 602.279 1019.14C1034.25 1082.35 1129.41 1050.26 1313.86 1148.79C1507.28 1251.38 1538.95 1360.43 1742.04 1416.91C1858.47 1448.64 1980.61 1453.43 2099.17 1430.93C2323.42 1393.78 2339.54 1227.28 2550.05 1109.82C2807.24 966.303 3092.6 1003.02 3135.91 1019.84C3376.75 1116.37 3581.49 1285.59 3721.63 1503.95C3740.69 1534.92 3753.45 1562.67 3763.68 1581.88C4042.03 2087.42 3820.58 2463.75 4092.91 2647.07C4264.46 2762.28 4510.16 2727.38 4638.27 2715.47C4748.66 2704.7 4856.79 2677.24 4958.95 2634.04C5060.42 2594.37 5155.17 2553.87 5302.05 2533.54C5348.87 2527.1 5390.49 2526.4 5427.5 2521.07C5650.77 2488.55 5728.98 2535.09 5988.13 2462.91C6090.06 2433.5 6187.29 2389.71 6276.85 2332.84C6509.09 2191.7 6682.47 1923.16 7085.98 1726.1C7109.25 1714.88 7133.64 1703.72 7159.15 1692.6C7362.66 1605.28 7674.23 1514.88 8108.02 1542.07" stroke="white" stroke-width="5" stroke-miterlimit="10"/>
<path d="M31.2754 927.899C263.938 980.599 459.878 1017.04 602.139 1040.03C1021.49 1105.76 1119.88 1076.89 1302.93 1175.56C1492.42 1276.61 1527.18 1383.27 1724.1 1439.61C1838.09 1471.51 1957.66 1478.2 2074.5 1459.24C2295.53 1431.21 2314.45 1270.02 2521.6 1157.2C2773.04 1019.14 3045.65 1074.08 3097.09 1064.69C3393.52 1124.54 3579.93 1373.04 3676.92 1516.56C3696.4 1545.29 3708.88 1571.64 3719.81 1589.72C4004.33 2063.18 3798.02 2422.4 4065.3 2593.67C4239.1 2704.96 4486.62 2668.1 4619.63 2656.74C4731 2646.49 4840.55 2621.71 4945.49 2583.02C5048.93 2548.12 5144.8 2515.32 5289.86 2502.99C5336.95 2498.92 5378.72 2501.03 5416 2495.7C5638.99 2463.18 5712.72 2492.76 5967.1 2408.94C6074.88 2373.34 6163.32 2322.33 6251.34 2266.82C6474.47 2125.41 6655.56 1847.89 7066.78 1645.09C7090.14 1633.59 7114.81 1622.15 7140.79 1610.75C7346.12 1521.19 7662.17 1427 8102.27 1451.95" stroke="white" stroke-width="5" stroke-miterlimit="10"/>
<path d="M38.7031 945.419C265.899 997.978 459.317 1036.24 602.278 1060.07C1008.74 1128.18 1109.65 1103.24 1292.7 1201.35C1478.27 1301.14 1515.13 1405.28 1707.14 1461.34C1818.48 1493.22 1935.24 1501.52 2049.97 1485.73C2266.79 1464.98 2289.5 1310.95 2493.15 1202.89C2738.71 1072.68 3001.36 1122.72 3058.55 1109.12C3346.15 1163.5 3532.42 1394.76 3632.35 1528.75C3652.25 1555.38 3664.59 1580.47 3675.8 1597.29C3966.35 2038.37 3775.59 2380.63 4037.55 2540.27C4213.59 2647.63 4463.07 2608.67 4600.7 2598.16C4740.86 2587.5 4839.67 2558.49 4931.9 2532.14C5037.3 2502.01 5135.41 2458.28 5277.39 2472.44C5319.36 2476.96 5361.73 2476.25 5403.53 2470.33C5626.38 2437.82 5695.34 2451.13 5944.82 2354.84C6049.24 2314.62 6136.13 2259.26 6225.13 2200.67C6439.15 2059.39 6627.95 1773.33 7046.74 1563.93C7070.38 1552.16 7095.33 1540.39 7121.58 1528.61C7328.6 1437.09 7649.14 1339.12 8095.68 1361.69" stroke="white" stroke-width="5" stroke-miterlimit="10"/>
<path d="M46.2676 963.079C268.979 1015.64 458.893 1055.72 601.293 1081.09C995.557 1151.17 1099.69 1129.87 1281.9 1228.26C1464.11 1326.65 1503.21 1428.12 1689.48 1484.32C1851.78 1533.24 1987.03 1522.73 2025.86 1513.62C2232.87 1464.56 2264.83 1353.14 2465.11 1249.84C2704.78 1126.22 2957.77 1171.77 3020.28 1154.11C3298.91 1203.17 3484.9 1416.63 3588.2 1541.37C3608.38 1565.9 3620.58 1589.72 3631.93 1605.42C3928.5 2014.12 3753.73 2339.01 4010.35 2487.57C4188.92 2591.01 4439.94 2549.94 4582.48 2540.13C4725.02 2530.32 4824.95 2503.97 4918.86 2481.69C5026.08 2456.32 5127.55 2418.33 5265.47 2442.58C5307.09 2450.28 5349.68 2451.27 5391.61 2445.53C5614.18 2413.01 5678.51 2410.07 5922.95 2301.44C6024.14 2256.59 6109.08 2196.75 6198.22 2135.64C6403.27 1995.48 6599.91 1699.75 7026.13 1483.76C7049.96 1471.71 7075.19 1459.66 7101.82 1447.6C7310.65 1353.98 7635.68 1252.22 8088.53 1272.41" stroke="white" stroke-width="5" stroke-miterlimit="10"/>
<path d="M53.8359 980.179C271.501 1033.16 458.332 1075.21 600.872 1101.56C982.522 1173.32 1089.74 1156.08 1271.11 1254.47C1449.11 1351.18 1491.16 1450.69 1671.96 1506.75C1829.78 1555.67 1961.25 1549.64 2000.63 1540.95C2203.58 1495.82 2238.9 1394.9 2435.96 1296.37C2669.74 1179.2 2912.5 1220.55 2980.89 1198.26C3250.7 1241.85 3435.99 1436.53 3542.79 1553.28C3558.55 1572.28 3573.33 1592.06 3587.08 1612.57C3889.4 1988.89 3731.02 2296.26 3981.48 2433.89C4162.71 2533.26 4415.27 2489.96 4562.58 2481.13C4704.28 2472.44 4808.41 2448.47 4904.14 2430.39C5013.32 2409.79 5118.16 2378.53 5251.87 2411.75C5293.27 2422.71 5336.4 2425.47 5378.86 2419.88C5601.29 2387.22 5660.85 2368.3 5900.38 2247.06C5998.49 2197.59 6081.19 2133.53 6171.03 2069.34C6367.25 1929.19 6571.6 1625.04 7005.25 1402.47C7029.26 1390.14 7054.77 1377.81 7081.77 1365.47C7292.01 1269.74 7621.8 1164.21 8081.1 1182.15" stroke="white" stroke-width="5" stroke-miterlimit="10"/>
<path d="M61.4062 997.418C274.026 1050.12 457.773 1093.57 600.594 1122.16C969.489 1195.88 1079.79 1182.57 1261.02 1280.96C1435.23 1376.12 1479.8 1473.11 1655 1528.9C1809.18 1577.81 1936.16 1576.27 1976.66 1568C2175.69 1527.21 2214.93 1436.39 2408.07 1342.49C2635.97 1231.9 2869.33 1268.9 2942.77 1242.83C3203.61 1280.96 3387.91 1458.26 3498.78 1565.2C3514.69 1582.62 3529.61 1600.92 3543.49 1620C3851.84 1963.8 3709.86 2253.37 3954.15 2380.35C4138.04 2475.8 4392.01 2430.53 4544.08 2422.4C4687.04 2414.55 4793.56 2393.11 4890.97 2379.23C5006.75 2363.31 5124.21 2363.92 5239.82 2381.05C5289.16 2387.36 5330.64 2399.69 5367.22 2395.07C5589.38 2362.27 5644.18 2327.65 5878.8 2193.66C5973.27 2139.7 6054.42 2071.02 6145.1 2004.03C6332.77 1864.99 6544.41 1551.18 6986.05 1322.02C7010.16 1309.55 7036.09 1296.79 7063.56 1284.04C7275.76 1185.93 7610.17 1076.89 8075.36 1092.58" stroke="white" stroke-width="5" stroke-miterlimit="10"/>
<path d="M69.6777 1021.52C277.252 1074.08 458.055 1119.64 600.876 1149.49C956.597 1224.75 1069.98 1215.36 1249.53 1314.17C1420.1 1407.8 1467.05 1502.41 1636.78 1558.05C1785.91 1606.96 1909.53 1609.77 1951.16 1602.06C2146.54 1566.04 2188.73 1484.75 2378.92 1395.61C2600.79 1291.61 2824.48 1324.26 2903.25 1294.13C3155.53 1326.79 3337.74 1485.59 3453.23 1584.54C3469.29 1600.37 3484.4 1617.12 3498.5 1634.71C3811.75 1946 3687.57 2217.63 3925.42 2334.1C4112.25 2425.62 4367.34 2378.39 4524.32 2370.96C4668.26 2364.09 4777.3 2345.17 4876.39 2335.5C4989.36 2324.43 5094.62 2333.82 5226.79 2357.79C5276.82 2366.9 5318.17 2381.61 5354.61 2376.29C5576.48 2343.49 5626.66 2293.17 5856.38 2146.15C5947.48 2087.7 6026.67 2014.68 6118.05 1944.6C6297.31 1806.97 6516.24 1483.48 6964.75 1247.6C6989.13 1234.7 7015.2 1221.81 7043.09 1208.63C7256.98 1108.84 7595.46 995.736 8067.51 1009.05" stroke="white" stroke-width="5" stroke-miterlimit="10"/>
<path d="M76.543 1082.21C279.071 1134.77 456.791 1181.72 599.753 1213.54C943.56 1290.21 1060.03 1285.44 1238.73 1383.55C1405.52 1475.64 1455 1568 1619.26 1623.36C1763.9 1672.28 1883.6 1679.42 1926.49 1672.28C2118.22 1641.3 2163.49 1569.26 2350.32 1484.89C2566.17 1386.78 2780.19 1415.93 2864.42 1381.45C3107.46 1409.48 3274.39 1571.5 3408.52 1639.76C3426.32 1658.82 3441.73 1674.24 3454.07 1685.17C3772.65 1963.8 3666.27 2217.77 3897.39 2323.73C4087.3 2411.05 4343.51 2361.85 4505.25 2355.26C4650.18 2349.38 4761.74 2332.98 4862.52 2327.23C4977.45 2320.93 5084.67 2339.57 5213.61 2369.98C5264.35 2381.89 5305.56 2398.99 5341.86 2393.53C5563.59 2360.73 5609 2295.42 5833.67 2134.8C5921.55 2072.15 5998.78 1994.64 6090.86 1921.34C6261.85 1785.24 6487.93 1451.81 6943.86 1209.34C6968.44 1196.35 6994.83 1183.08 7023.05 1169.53C7238.75 1068.34 7582.14 951.446 8060.08 963.079" stroke="white" stroke-width="5" stroke-miterlimit="10"/>
<path d="M83.6953 1136.87C281.598 1189.43 456.235 1237.93 599.336 1271.43C930.67 1349.35 1050.79 1349.35 1227.94 1448.02C1390.95 1538.43 1442.95 1628.55 1601.61 1683.77C1741.76 1732.54 1857.53 1743.48 1901.82 1737.45C2090.06 1711.8 2138.27 1648.87 2322.3 1569.26C2532.53 1478.16 2736.46 1502.41 2826.17 1463.86C3060.23 1485.73 3225.48 1633.03 3364.23 1689.8C3378.77 1704.3 3394.17 1717.92 3410.34 1730.58C3733.83 1976.84 3645.67 2211.74 3869.92 2308.31C4063.06 2391.42 4320.11 2340.27 4486.62 2334.66C4632.66 2329.62 4746.75 2315.74 4849.06 2314.48C4965.96 2312.94 5075.28 2341.11 5201.42 2377.69C5252.72 2392.55 5293.93 2411.89 5330.23 2405.72C5551.54 2372.78 5592.46 2291.91 5812.09 2118.26C5896.18 2051.4 5972.01 1969.55 6064.37 1893.02C6227.1 1758.75 6460.18 1415.09 6923.54 1165.89C6948.21 1151.87 6974.98 1138.98 7003.57 1125.24C7220.96 1021.1 7568.41 900.99 8053.22 909.259" stroke="white" stroke-width="5" stroke-miterlimit="10"/>
<path d="M91.543 1191.54C284.26 1244.09 455.954 1294.13 598.915 1329.59C917.774 1408.36 1040.13 1412.98 1217.15 1511.8C1376.37 1600.66 1430.89 1688.53 1584.08 1743.48C1720.04 1792.25 1831.6 1796.32 1877.16 1802.06C2061.46 1825.61 2113.04 1727.78 2293.14 1653.07C2497.07 1568.98 2691.61 1588.46 2786.78 1545.71C3012.01 1562.11 3175.3 1694.14 3319.38 1739.41C3334.06 1752.49 3349.61 1764.57 3365.91 1775.57C3694.16 1989.31 3624.5 2205.3 3842.45 2292.33C4038.67 2371.1 4296.7 2318.26 4468.11 2313.36C4615.28 2309.29 4731.75 2298.08 4835.75 2300.88C4954.6 2304.11 5065.75 2342.09 5189.23 2384.98C5241.23 2402.78 5282.15 2424.22 5318.45 2418.9C5539.62 2385.82 5576.06 2289.81 5790.36 2102.7C5871.8 2031.64 5945.24 1945.3 6038.58 1865.55C6192.76 1733.24 6433.27 1379.21 6904.06 1122.72C6929.01 1109.26 6955.96 1095.25 6984.93 1080.67C7204 974.432 7556.07 849.972 8047.19 856.419" stroke="white" stroke-width="5" stroke-miterlimit="10"/>
<path d="M99.1113 1246.34C286.783 1299.46 455.253 1350.33 598.494 1387.62C904.879 1467.23 1030.18 1476.76 1206.36 1575.71C1361.79 1662.89 1418.84 1747.96 1566.42 1804.02C1698.03 1852.8 1805.81 1860.09 1852.35 1867.52C2032.03 1895.55 2087.67 1807.53 2264.55 1737.59C2462.45 1659.24 2647.46 1675.22 2747.96 1628.27C2964.22 1639.34 3126.38 1755.81 3274.11 1789.73C3288.93 1801.42 3304.63 1811.96 3321.06 1821.26C3653.8 2002.63 3603.48 2199.69 3813.3 2277.2C4013.3 2351.34 4271.75 2296.82 4447.79 2292.89C4596.08 2289.67 4715.07 2281.12 4820.75 2288.13C4941.57 2296.12 5054.53 2344.19 5175.35 2392.27C5227.91 2413.29 5268.84 2436.84 5305 2431.37C5525.89 2398.29 5558.12 2287.29 5767.52 2086.58C5845.73 2011.32 5917.21 1920.64 6011.11 1837.52C6158 1707.32 6404.68 1342.77 6882.89 1080.67C6908.03 1066.75 6935.27 1052.73 6964.61 1038.62C7185.5 930.422 7541.92 802.178 8039.48 806.383" stroke="white" stroke-width="5" stroke-miterlimit="10"/>
<path d="M106.682 1301C288.887 1353.42 454.694 1406.4 598.075 1445.64C892.407 1525.81 1020.23 1540.67 1195.57 1639.48C1347.36 1725.11 1406.79 1808.65 1548.91 1863.73C1676.03 1912.51 1780.03 1923.02 1827.68 1932.13C2002.6 1965.34 2062.45 1886.3 2235.96 1821.26C2427.84 1749.36 2603.17 1761.14 2709.13 1709.98C2916.57 1715.58 3076.35 1816.78 3229.4 1839.2C3244.4 1849.45 3260.25 1858.41 3276.77 1865.97C3613.15 2015.52 3582.88 2192.12 3785.27 2261.08C3987.65 2330.03 4247.79 2275.09 4428.73 2271.59C4578 2269.21 4699.52 2263.18 4807.16 2274.39C4929.8 2287.15 5044.59 2344.47 5162.88 2399.13C5216 2423.38 5256.92 2448.75 5292.95 2443.42C5513.55 2410.2 5541.73 2284.48 5745.09 2069.9C5820.36 1990.57 5889.88 1895.55 5984.34 1808.93C6123.38 1681.25 6376.79 1305.9 6862.29 1036.52C6887.52 1022.51 6915.13 1008.49 6944.85 993.212C7167.14 882.348 7528.18 750.319 8032.05 752.842" stroke="white" stroke-width="5" stroke-miterlimit="10"/>
<path d="M114.25 1355.52C291.83 1407.94 454.273 1462.32 597.795 1503.39C879.232 1584.12 1010.28 1604.16 1184.78 1703.11C1332.78 1787.21 1395.01 1868.36 1531.25 1922.74C1654.17 1971.51 1754.38 1985.25 1803.01 1996.04C1973.3 2033.74 2037.08 1964.51 2207.51 1904.24C2393.22 1838.64 2558.88 1846.49 2670.03 1791.13C2868.49 1791.13 3026.45 1877.05 3184.27 1887.98C3199.57 1896.78 3215.61 1904.24 3232.2 1910.26C3573.63 2028.28 3562.42 2184.13 3757.24 2244.68C3964.53 2309.01 4223.82 2251.97 4409.67 2250.01C4559.92 2248.32 4683.96 2244.96 4793 2260.38C4917.6 2277.9 5033.93 2346.01 5149.84 2405.58C5203.52 2433.61 5244.31 2460.38 5280.33 2454.92C5500.8 2421.84 5524.91 2281.26 5722.67 2052.8C5794.85 1969.41 5862.83 1870.6 5957.29 1779.92C6088.76 1654.76 6348.61 1268.62 6841.55 992.513C6867.06 978.217 6894.86 963.453 6924.94 948.223C7149.2 836.097 7514.73 700.144 8025.04 699.724" stroke="white" stroke-width="5" stroke-miterlimit="10"/>
<path d="M121.818 1410.46C294.353 1462.88 453.712 1518.52 597.374 1561.69C866.477 1642.7 1000.47 1668.21 1173.98 1767.44C1318.21 1849.72 1382.68 1928.76 1513.73 1982.87C1599.52 2016.51 1688.05 2042.67 1778.34 2061.07C1944.01 2103.12 2011.71 2043.69 2178.92 1988.33C2358.46 1929.04 2515.3 1932.27 2631.49 1873.26C2820.98 1868.08 2977.26 1938.44 3139.84 1938.01C3155.38 1945.33 3171.57 1951.2 3188.19 1955.53C3532.7 2041.87 3542.23 2176.56 3729.2 2228.84C3940.42 2287.85 4199.99 2233.33 4390.47 2228.84C4541.84 2225.34 4668.26 2227.44 4779.13 2246.92C4905.27 2269.21 5023.56 2347.7 5137.09 2412.59C5191.19 2443.42 5232.12 2472.58 5268 2467.11C5488.19 2433.89 5508.51 2278.74 5700.52 2036.27C5769.62 1948.95 5835.5 1845.51 5930.66 1751.47C6054.42 1628.97 6320.72 1231.9 6821.09 949.063C6846.74 935.048 6874.77 919.49 6905.18 903.933C7131.26 789.424 7501.27 649.827 8017.9 647.164" stroke="white" stroke-width="5" stroke-miterlimit="10"/>
<path d="M129.389 1465.26C297.578 1517.68 453.294 1574.45 596.956 1619.44C853.725 1700.45 990.519 1731.56 1163.33 1830.93C1303.49 1911.53 1370.63 1988.47 1496.07 2042.29C1579.67 2076.84 1665.79 2104.95 1753.68 2126.39C1915 2172.5 1986.34 2123.02 2150.33 2072.85C2323.7 2019.59 2470.45 2019.45 2592.66 1955.82C2773.33 1945.02 2927.78 2000.1 3094.99 1988.19C3110.82 1993.97 3127.15 1998.29 3143.77 2001.09C3492.2 2056.45 3522.19 2169.28 3701.17 2213.56C3916.46 2266.82 4176.03 2211.6 4371.41 2208.24C4523.9 2205.72 4652.71 2210.34 4765.25 2234.03C4893.64 2261.08 5012.91 2349.94 5124.48 2420.16C5178.72 2454.36 5219.92 2485.33 5255.67 2479.86C5475.71 2446.51 5492.25 2276.78 5678.24 2020.29C5744.54 1928.9 5808.59 1821.4 5903.9 1723.71C6020.51 1604.02 6292.97 1195.88 6800.91 906.176C6826.7 891.459 6855.15 876.042 6885.98 860.064C7113.88 743.593 7488.66 600.212 8011.31 595.166" stroke="white" stroke-width="5" stroke-miterlimit="10"/>
<path d="M136.814 1520.07C299.398 1572.34 452.871 1630.37 596.532 1677.88C840.547 1759.03 980.705 1795.75 1152.54 1895.27C1289.19 1974.32 1358.57 2049.44 1478.55 2102.56C1559.96 2137.36 1643.59 2166.77 1728.87 2190.58C1885.99 2240.61 1960.97 2201.37 2121.31 2156.1C2288.66 2109.15 2425.73 2105.08 2553.42 2037.11C2725.11 2020.99 2877.74 2060.65 3049.86 2037.11C3065.96 2041.4 3082.43 2044.16 3099.05 2045.38C3451.41 2070.04 3501.45 2160.02 3672.72 2196.89C3892.07 2244.26 4151.64 2188.48 4351.92 2186.51C4505.4 2184.83 4636.72 2191.98 4750.95 2219.87C4881.3 2251.69 5001.84 2350.92 5111.3 2426.46C5165.82 2464.17 5207.17 2496.54 5242.91 2491.36C5462.68 2458 5475.85 2273.55 5655.67 2003.05C5719.02 1907.74 5781.81 1796.32 5876.7 1694.7C5986.59 1577.95 6264.66 1159.3 6780.16 862.166C6806.09 847.169 6834.82 831.471 6866.08 815.213C7095.66 696.78 7474.64 549.474 8004.02 542.606" stroke="white" stroke-width="5" stroke-miterlimit="10"/>
<path d="M144.385 1574.87C301.922 1627.29 452.732 1686.15 596.114 1736.19C828.496 1817.06 970.756 1859.81 1141.75 1959.32C1274.76 2036.69 1346.52 2109.43 1460.89 2162.55C1540.15 2198.14 1621.39 2229.17 1704.2 2255.47C1857.11 2309.43 1935.46 2280.28 2093.14 2240.05C2254.32 2199.13 2381.87 2191.28 2515.02 2119.24C2677.88 2097.65 2828.69 2121.9 3005.57 2087.14C3022.02 2089.34 3038.59 2090.51 3055.18 2090.65C3411.19 2106.48 3481.83 2151.61 3645.11 2181.33C3868.52 2221.97 4128.23 2163.67 4333.14 2165.63C4487.32 2167.17 4621.59 2174.6 4737.5 2206.7C4869.81 2243.28 4991.33 2353.02 5098.97 2433.75C5153.77 2474.96 5195.4 2509.16 5231 2503.83C5450.62 2470.47 5460.43 2271.59 5633.81 1987.07C5694.36 1887.7 5755.33 1772.35 5850.49 1666.53C5952.81 1552.72 6237.47 1122.3 6759.7 818.997C6785.96 803.673 6814.87 787.742 6846.46 771.203C7077.72 650.388 7461.33 499.438 7997.01 489.907" stroke="white" stroke-width="5" stroke-miterlimit="10"/>
<path d="M151.953 1629.53C304.445 1681.81 452.312 1741.65 595.693 1794.07C816.021 1874.52 960.804 1923.3 1130.96 2023.09C1260.18 2098.78 1334.33 2169.42 1443.37 2222.25C1544.28 2271.31 1625.57 2299.34 1679.53 2320.36C1828.38 2377.97 1910.09 2359.05 2064.55 2324.15C2204.26 2292.07 2341.76 2251.01 2476.19 2201.23C2623.64 2149.37 2777.53 2097.79 2960.72 2136.9C2977.35 2139.21 2994.24 2138.83 3010.75 2135.78C3371.52 2100.18 3461.64 2142.79 3617.08 2165.63C3844.69 2198.99 4104.27 2141.52 4314.08 2144.61C4469.8 2146.85 4606.03 2157.08 4723.62 2193.24C4857.76 2235.29 4980.39 2354.98 5086.21 2440.9C5141.15 2485.61 5183.2 2521.49 5218.8 2516.02C5438.01 2482.53 5444.74 2269.07 5611.24 1970.53C5668.99 1867.1 5728.56 1748.1 5823.3 1638.22C5918.05 1528.33 6209.72 1086.56 6738.81 775.409C6765.16 760.131 6794.88 743.733 6826.41 726.774C7059.5 603.996 7447.45 449.262 7989.72 437.349" stroke="white" stroke-width="5" stroke-miterlimit="10"/>
<path d="M159.518 1684.33C306.964 1736.61 452.027 1796.46 595.409 1852.52C803.543 1932.55 950.989 1987.49 1120.16 2087.42C1246.3 2161.43 1322.27 2229.96 1425.7 2282.52C1522.27 2331.72 1600.76 2362.41 1654.86 2385.26C1799.79 2446.51 1884.58 2437.68 2035.95 2408.1C2184.66 2379.09 2283.33 2342.09 2437.36 2283.36C2576.12 2230.38 2723.85 2220.15 2916 2186.65C2933.66 2183.57 2950.62 2183.85 2966.46 2181.05C3331.71 2115.45 3441.46 2133.67 3589.04 2149.93C3820.72 2175.3 4080.44 2119.52 4294.88 2123.58C4451.71 2126.67 4590.47 2139.56 4709.74 2179.65C4845.84 2225.9 4969.32 2356.52 5073.45 2447.77C5128.54 2495.98 5171.57 2533.54 5206.46 2528.08C5425.39 2494.58 5429.18 2266.4 5589.38 1953.43C5644.46 1845.93 5702.76 1723.57 5796.95 1609.21C5885.67 1501.56 6182.38 1049.28 6718.77 731.399C6745.4 715.841 6774.83 699.162 6807.21 681.783C7041.97 557.043 7434.56 398.525 7982.99 384.229" stroke="white" stroke-width="5" stroke-miterlimit="10"/>
<path d="M167.787 1738.99C310.188 1791.27 452.588 1852.24 595.689 1910.12C791.91 1989.59 941.739 2050.28 1110.07 2150.91C1231.87 2223.24 1310.92 2289.67 1408.89 2342.09C1500.97 2391.14 1576.09 2424.36 1630.9 2449.59C1772.03 2514.48 1859.91 2515.74 2008.2 2491.64C2150.6 2468.37 2240.72 2430.67 2399.24 2365.5C2529.73 2311.39 2674.79 2286.03 2871.85 2236.55C2889.37 2232.21 2906.75 2230.38 2922.87 2226.32C3292.89 2130.87 3422.39 2150.21 3561.71 2134.24C3799.04 2108.17 4037.82 2097.68 4276.52 2102.84C4434.47 2106.62 4575.61 2122.18 4696.99 2166.75C4835.05 2217.77 4959.23 2358.91 5061.4 2455.34C5116.48 2507.05 5159.51 2546.16 5194.83 2540.83C5413.62 2507.19 5414.32 2264.44 5567.93 1938.16C5620.35 1826.73 5677.68 1701.01 5771.02 1582.02C5853.01 1477.6 6155.19 1013.68 6699.01 689.212C6725.78 673.374 6755.07 656.415 6788.29 638.755C7024.87 511.772 7421.8 349.47 7976.69 333.071" stroke="white" stroke-width="5" stroke-miterlimit="10"/>
<path d="M174.656 1778.38C312.011 1830.65 451.749 1892.04 595.13 1952.87C779.578 2031.5 931.509 2099.2 1099.7 2199.41C1217.85 2269.49 1299.28 2334.52 1391.79 2386.52C1479.39 2435.71 1551.29 2471.45 1606.51 2498.65C1744.28 2567.04 1834.83 2578.4 1980.03 2559.75C2116.26 2542.23 2198.26 2504.53 2360.84 2431.09C2483.34 2375.73 2626.3 2335.78 2827.57 2269.91C2845.09 2264.16 2862.46 2260.38 2879 2254.91C3254.07 2129.89 3402.77 2118.12 3534.1 2102.14C3774.17 2072.6 4016.05 2060.28 4257.88 2065.28C4416.82 2069.9 4560.48 2088.12 4682.98 2136.9C4823.13 2192.96 4947.87 2344.19 5049.07 2445.25C5104.01 2500.47 5147.18 2541.39 5182.92 2535.93C5401.43 2502.15 5399.46 2244.82 5546.07 1904.38C5595.83 1788.75 5652.59 1659.94 5744.67 1536.32C5820.22 1434.99 6127.72 959.576 6678.97 628.383C6705.88 612.265 6736.01 595.026 6769.09 577.086C7007.36 448.001 7408.91 281.914 7970.1 263.133" stroke="white" stroke-width="5" stroke-miterlimit="10"/>
<path d="M181.803 1799.54C314.112 1851.82 451.467 1913.21 593.727 1977.26C766.401 2055.05 921.136 2128.91 1087.36 2229.54C1201.87 2298.36 1285.55 2361.01 1372.58 2412.59C1455.84 2461.92 1524.52 2499.91 1580.3 2529.9C1714.71 2601.8 1807.91 2623.11 1949.89 2610.07C2079.96 2598.16 2154.39 2561.44 2320.47 2479.44C2435.12 2423.38 2576.4 2368.44 2781.17 2286.03C2798.83 2279.02 2816.35 2273.27 2833.03 2266.4C3213.7 2111.53 3380.49 2068.22 3504.53 2052.66C3746.02 2022.53 4008.25 2003.19 4237.13 2010.62C4397.19 2015.8 4543.24 2036.83 4667.56 2089.81C4809.54 2150.35 4934.84 2312.24 5034.77 2419.32C5089.71 2478.18 5133.86 2520.51 5169.04 2515.04C5387.41 2481.41 5382.64 2209.22 5522.38 1854.9C5569.47 1735.21 5625.96 1603.46 5716.36 1474.93C5785.6 1376.82 6098.29 889.917 6656.96 551.997C6684.15 535.739 6714.42 518.079 6747.92 499.719C6988.01 368.671 7393.91 198.801 7961.55 177.356" stroke="white" stroke-width="5" stroke-miterlimit="10"/>
<path d="M189.652 1819.72C317.056 1871.86 452.168 1933.25 593.728 2000.81C759.221 2078.35 920.531 2164.53 1076.99 2258.98C1187.86 2326.25 1273.21 2386.94 1355.49 2437.96C1434.11 2487.71 1499.71 2527.8 1556.05 2560.17C1687.24 2635.72 1782.97 2666.83 1921.72 2659.55C2045.76 2653.1 2113.04 2618.2 2282.07 2526.96C2389.43 2469.07 2529.17 2400.11 2736.88 2301.3C2754.54 2292.89 2772.2 2285.18 2789.16 2277.06C3175.3 2092.33 3358.9 2010.06 3476.92 2002.35C3723.45 1986.65 3984.71 1946.28 4218.49 1955.11C4379.67 1960.86 4528.1 1984.97 4654.1 2042.01C4798.05 2107.33 4923.77 2280.28 5022.44 2392.41C5077.1 2454.78 5121.95 2498.79 5157.13 2493.46C5375.22 2459.54 5367.37 2172.64 5500.52 1804.44C5547.54 1666.52 5611.17 1534.83 5690.01 1412.28C5753.08 1317.12 6070.82 818.857 6636.78 474.21C6664.11 457.671 6694.66 439.731 6728.58 421.09C6970.35 287.94 7380.88 114.285 7954.82 90.8789" stroke="white" stroke-width="5" stroke-miterlimit="10"/>
<path d="M197.221 1839.06C497.473 1967.08 787.915 2116.99 1066.2 2287.57C1513.86 2562.14 1636.22 2710.42 1893.13 2708.04C2080.24 2706.22 2124.39 2626.61 2692.03 2315.6C3118.95 2081.68 3332.41 1965.21 3448.88 1951.19C3867.4 1902.27 4324.87 1841.73 4640.23 1993.24C4867.56 2102.42 5046.69 2484.91 5144.8 2469.77C5435.62 2424.64 5320.83 1902.13 5663.38 1348.51C5720.42 1256.29 6043.07 746.816 6616.45 395.441C6839.02 259.068 7285.85 32.2929 7947.95 3" stroke="white" stroke-width="5" stroke-miterlimit="10"/>
</svg>
