<svg width="500" height="500" viewBox="0 0 500 500" fill="none" xmlns="http://www.w3.org/2000/svg">
<circle cx="250" cy="250" r="250" fill="#2F2E41"/>
<circle cx="250" cy="250" r="250" fill="#2F2E41"/>
<circle cx="250" cy="250" r="250" fill="#2F2E41"/>
<circle cx="250" cy="250" r="250" fill="#4287F5"/>
<circle cx="250" cy="250" r="250" fill="#4287F5"/>
<path d="M239 332.5C425.5 488 157 257.501 157 257.501M157 257.501L186.147 111.765C187.848 103.261 194.836 96.8221 203.451 95.8214L271.756 87.8869C281.207 86.7891 290.123 92.501 293.076 101.545L339.8 244.639C342.337 252.408 339.892 260.939 333.624 266.184L189.836 386.52C176.817 397.415 157 388.159 157 371.182V257.501Z" stroke="black" stroke-width="44"/>
</svg>
